<?xml version="1.0" encoding="UTF-8" standalone="no"?>
<!-- Created with Inkscape (http://www.inkscape.org/) -->

<svg
   width="32"
   height="32"
   viewBox="0 0 8.4666668 8.4666664"
   version="1.1"
   id="svg5"
   xml:space="preserve"
   inkscape:version="1.2.2 (b0a8486541, 2022-12-01)"
   sodipodi:docname="favicon.svg"
   inkscape:export-filename="favicon.png"
   inkscape:export-xdpi="96"
   inkscape:export-ydpi="96"
   xmlns:inkscape="http://www.inkscape.org/namespaces/inkscape"
   xmlns:sodipodi="http://sodipodi.sourceforge.net/DTD/sodipodi-0.dtd"
   xmlns="http://www.w3.org/2000/svg"
   xmlns:svg="http://www.w3.org/2000/svg"><sodipodi:namedview
     id="namedview7"
     pagecolor="#ffffff"
     bordercolor="#3e3e3e"
     borderopacity="0.38431373"
     inkscape:showpageshadow="2"
     inkscape:pageopacity="0"
     inkscape:pagecheckerboard="0"
     inkscape:deskcolor="#d1d1d1"
     inkscape:document-units="mm"
     showgrid="false"
     inkscape:zoom="5.6568542"
     inkscape:cx="51.88396"
     inkscape:cy="46.227106"
     inkscape:window-width="1720"
     inkscape:window-height="1371"
     inkscape:window-x="1720"
     inkscape:window-y="32"
     inkscape:window-maximized="0"
     inkscape:current-layer="layer1" /><defs
     id="defs2"><rect
       x="100.37212"
       y="3709.106"
       width="268.11157"
       height="515.15015"
       id="rect542" /><clipPath
       clipPathUnits="userSpaceOnUse"
       id="clipPath1247"><rect
         style="font-variation-settings:'wght' 700;fill:#ffffff;fill-opacity:1;stroke-width:0.712258;stroke-dasharray:0.712258, 17.0942;stroke-opacity:0.648712;stop-color:#000000"
         id="rect1249"
         width="151.84515"
         height="161.97609"
         x="379.55133"
         y="-11.89981"
         rx="1.9185239"
         ry="1.8120886" /></clipPath></defs><g
     inkscape:label="Capa 1"
     inkscape:groupmode="layer"
     id="layer1"><text
       xml:space="preserve"
       style="font-style:normal;font-variant:normal;font-weight:normal;font-stretch:normal;font-size:4.9389px;line-height:normal;font-family:'Ubuntu Mono';-inkscape-font-specification:'Ubuntu Mono, @wght=700';font-variant-ligatures:normal;font-variant-caps:normal;font-variant-numeric:normal;font-variant-east-asian:normal;font-variation-settings:'wght' 700;text-decoration-color:#000000;fill:#352d51;stroke-width:0.382;stroke-dasharray:0.382, 9.168;stroke-opacity:0.648712;stop-color:#000000"
       x="-51.393761"
       y="501.45709"
       id="text395"><tspan
         sodipodi:role="line"
         id="tspan393"
         style="font-style:normal;font-variant:normal;font-weight:normal;font-stretch:normal;font-size:4.9389px;font-family:'Ubuntu Mono';-inkscape-font-specification:'Ubuntu Mono, @wght=700';font-variant-ligatures:normal;font-variant-caps:normal;font-variant-numeric:normal;font-variant-east-asian:normal;font-variation-settings:'wght' 700;stroke-width:0.382"
         x="-51.393761"
         y="501.45709">&gt; _</tspan></text><path
       style="fill:#c77a8a;fill-opacity:1;stroke:none;stroke-width:0.0125037"
       d="M 0.48664684,6.1716827 C 0.30923524,6.1216217 0.19537354,5.985535 0.16914986,5.7922126 0.15829456,5.7121866 0.18714674,5.5901252 0.2337028,5.5191103 0.25173747,5.491603 0.5155708,5.2227246 0.81999887,4.9216045 1.403847,4.3441003 1.4365163,4.3059262 1.4187198,4.2220196 1.4118816,4.1897763 1.2875478,4.0578492 0.82640724,3.5935322 0.1626991,2.9252545 0.17452639,2.9403531 0.16521799,2.7495299 0.1610214,2.6635165 0.16497916,2.6301322 0.18598658,2.5744767 0.27287155,2.3442498 0.54130719,2.2373694 0.76985698,2.3420035 0.84772305,2.3776509 1.2206937,2.7339247 1.9641431,3.4828211 2.3652552,3.886872 2.413401,3.939749 2.4517899,4.018397 c 0.039836,0.081612 0.042594,0.095396 0.042594,0.2128274 0,0.1161632 -0.00301,0.1316274 -0.040122,0.2065749 -0.022067,0.044556 -0.063475,0.1091446 -0.092018,0.1435306 C 2.2577963,4.7071576 1.7174631,5.266964 1.3225113,5.658533 0.93663254,6.041107 0.83581907,6.127964 0.73950384,6.1608291 c -0.0680322,0.023212 -0.19043356,0.028468 -0.252857,0.010854 z"
       id="path871"
       sodipodi:nodetypes="ssssssscsssssssss"
       inkscape:export-filename="./path871.png"
       inkscape:export-xdpi="96"
       inkscape:export-ydpi="96" /><rect
       style="font-variation-settings:'wght' 700;fill:#c77a8a;fill-opacity:1;stroke-width:0.0202013;stroke-dasharray:0.0202013, 0.48483;stroke-opacity:0.648712;stop-color:#000000"
       id="rect1365"
       width="5.0781598"
       height="1.007098"
       x="3.224782"
       y="7.2958827"
       rx="0.54774606"
       ry="0.51056522" /><g
       id="g1407"
       transform="matrix(0.04832514,0,0,0.04832514,-1.5939159,-1.3136108)"
       style="fill:#c77a8a;fill-opacity:1"><path
         style="fill:#c77a8a;fill-opacity:1;stroke-width:0.264583"
         d="m 150.5171,160.72243 c -13.51681,-0.74161 -26.58389,-6.83509 -34.82556,-16.23993 -12.54692,-14.3177 -15.768366,-34.23941 -8.55481,-52.903643 2.79483,-7.23128 6.29657,-12.7857 11.57903,-18.36653 7.81577,-8.25722 11.82175,-15.08941 13.74899,-23.44887 0.42826,-1.85758 0.59126,-3.73097 0.72638,-8.34817 0.14359,-4.90665 0.25475,-6.10365 0.63237,-6.80945 1.25789,-2.35109 3.73292,-4.03083 5.94671,-4.03588 5.48109,-0.0125 16.35575,8.80538 22.34816,18.12137 2.70644,4.20751 4.82538,9.35858 5.49636,13.36146 0.41109,2.45246 0.41878,8.20351 0.0159,11.90624 -0.16625,1.52797 -0.8571,5.81422 -1.53524,9.525 -1.7949,9.82177 -1.72948,13.85844 0.26379,16.27662 1.5643,1.897773 3.97801,2.268443 6.08216,0.934023 2.19025,-1.389013 3.51402,-3.634413 5.19232,-8.807293 2.01274,-6.20373 2.86079,-7.81756 4.56482,-8.6869 2.20179,-1.12326 4.39568,-0.39886 7.26913,2.40021 6.71378,6.53999 11.22306,17.598173 11.65225,28.575003 0.64258,16.43432 -6.11788,30.04745 -19.31065,38.88468 -6.30632,4.22432 -15.26233,7.18904 -22.83576,7.55936 -1.58047,0.0773 -3.34984,0.1748 -3.93193,0.2167 -0.58208,0.0419 -2.61808,-0.009 -4.52445,-0.114 z"
         id="path1409"
         sodipodi:nodetypes="csssssssssssssssssssscc" /></g></g></svg>
