<?xml version="1.0" encoding="UTF-8" standalone="no"?>
<!-- Created with Inkscape (http://www.inkscape.org/) -->

<svg
   width="800"
   height="800"
   viewBox="0 0 211.66667 211.66666"
   version="1.1"
   id="svg5"
   xml:space="preserve"
   inkscape:version="1.2.2 (b0a8486541, 2022-12-01)"
   sodipodi:docname="logo-reverse.svg"
   xmlns:inkscape="http://www.inkscape.org/namespaces/inkscape"
   xmlns:sodipodi="http://sodipodi.sourceforge.net/DTD/sodipodi-0.dtd"
   xmlns="http://www.w3.org/2000/svg"
   xmlns:svg="http://www.w3.org/2000/svg"><sodipodi:namedview
     id="namedview7"
     pagecolor="#ffffff"
     bordercolor="#3e3e3e"
     borderopacity="0.38431373"
     inkscape:showpageshadow="2"
     inkscape:pageopacity="0"
     inkscape:pagecheckerboard="0"
     inkscape:deskcolor="#d1d1d1"
     inkscape:document-units="mm"
     showgrid="false"
     inkscape:zoom="0.5"
     inkscape:cx="791"
     inkscape:cy="421"
     inkscape:window-width="1720"
     inkscape:window-height="1371"
     inkscape:window-x="1720"
     inkscape:window-y="32"
     inkscape:window-maximized="0"
     inkscape:current-layer="layer1" /><defs
     id="defs2"><rect
       x="100.37212"
       y="3709.106"
       width="268.11157"
       height="515.15015"
       id="rect542" /><clipPath
       clipPathUnits="userSpaceOnUse"
       id="clipPath1247"><rect
         style="font-variation-settings:'wght' 700;fill:#ffffff;fill-opacity:1;stroke-width:0.712258;stroke-dasharray:0.712258, 17.0942;stroke-opacity:0.648712;stop-color:#000000"
         id="rect1249"
         width="151.84515"
         height="161.97609"
         x="379.55133"
         y="-11.89981"
         rx="1.9185239"
         ry="1.8120886" /></clipPath></defs><g
     inkscape:label="Capa 1"
     inkscape:groupmode="layer"
     id="layer1"><text
       xml:space="preserve"
       style="font-style:normal;font-variant:normal;font-weight:normal;font-stretch:normal;font-size:4.9389px;line-height:normal;font-family:'Ubuntu Mono';-inkscape-font-specification:'Ubuntu Mono, @wght=700';font-variant-ligatures:normal;font-variant-caps:normal;font-variant-numeric:normal;font-variant-east-asian:normal;font-variation-settings:'wght' 700;text-decoration-color:#000000;fill:#352d51;stroke-width:0.382;stroke-dasharray:0.382, 9.168;stroke-opacity:0.648712;stop-color:#000000"
       x="-51.393761"
       y="501.45709"
       id="text395"><tspan
         sodipodi:role="line"
         id="tspan393"
         style="font-style:normal;font-variant:normal;font-weight:normal;font-stretch:normal;font-size:4.9389px;font-family:'Ubuntu Mono';-inkscape-font-specification:'Ubuntu Mono, @wght=700';font-variant-ligatures:normal;font-variant-caps:normal;font-variant-numeric:normal;font-variant-east-asian:normal;font-variation-settings:'wght' 700;stroke-width:0.382"
         x="-51.393761"
         y="501.45709">&gt; _</tspan></text><path
       style="fill:#1d062c;stroke-width:0.293183;stroke:none;fill-opacity:1"
       d="m 18.524378,148.68518 c -4.15988,-1.17381 -6.829666,-4.36472 -7.444549,-8.89767 -0.254531,-1.87642 0.421984,-4.73847 1.513613,-6.4036 0.42287,-0.64498 6.609134,-6.94954 13.747248,-14.01009 13.689849,-13.5411 14.455866,-14.43619 14.038581,-16.4036 C 40.218932,102.21419 37.303599,99.120813 26.490951,88.233686 10.928574,72.564163 11.205896,72.918189 10.987636,68.443838 c -0.0984,-2.016809 -0.0056,-2.799591 0.486974,-4.10458 2.037246,-5.398274 8.331423,-7.904364 13.690372,-5.450944 1.825774,0.835846 10.571049,9.189619 28.003168,26.749459 9.405124,9.474032 10.534029,10.713871 11.434157,12.55798 0.934056,1.913617 0.998735,2.236817 0.998735,4.990297 0,2.72375 -0.07048,3.08635 -0.940771,4.84369 -0.517427,1.04472 -1.488338,2.55918 -2.157607,3.36545 -2.449044,2.95036 -15.118573,16.07649 -24.379254,25.25785 -9.047938,8.97045 -11.411774,11.00704 -13.670137,11.77765 -1.595192,0.54427 -4.465214,0.6675 -5.928895,0.25449 z"
       id="path871"
       sodipodi:nodetypes="ssssssscsssssssss" /><rect
       style="font-variation-settings:'wght' 700;fill:#1d062c;fill-opacity:1;stroke-width:0.473672;stroke-dasharray:0.473672, 11.3681;stroke-opacity:0.648712;stop-color:#000000"
       id="rect1365"
       width="119.07077"
       height="23.61405"
       x="82.727135"
       y="175.045"
       rx="12.843342"
       ry="11.97154" /><g
       id="g1407"
       transform="matrix(1.1331095,0,0,1.1331095,-30.259868,-26.827143)"
       style="fill:#c77a8a;fill-opacity:1"><path
         style="fill:#c77a8a;stroke-width:0.264583;fill-opacity:1"
         d="m 150.5171,160.72243 c -13.51681,-0.74161 -26.58389,-6.83509 -34.82556,-16.23993 -12.54692,-14.3177 -15.768366,-34.23941 -8.55481,-52.903643 2.79483,-7.23128 6.29657,-12.7857 11.57903,-18.36653 7.81577,-8.25722 11.82175,-15.08941 13.74899,-23.44887 0.42826,-1.85758 0.59126,-3.73097 0.72638,-8.34817 0.14359,-4.90665 0.25475,-6.10365 0.63237,-6.80945 1.25789,-2.35109 3.73292,-4.03083 5.94671,-4.03588 5.48109,-0.0125 16.35575,8.80538 22.34816,18.12137 2.70644,4.20751 4.82538,9.35858 5.49636,13.36146 0.41109,2.45246 0.41878,8.20351 0.0159,11.90624 -0.16625,1.52797 -0.8571,5.81422 -1.53524,9.525 -1.7949,9.82177 -1.72948,13.85844 0.26379,16.27662 1.5643,1.897773 3.97801,2.268443 6.08216,0.934023 2.19025,-1.389013 3.51402,-3.634413 5.19232,-8.807293 2.01274,-6.20373 2.86079,-7.81756 4.56482,-8.6869 2.20179,-1.12326 4.39568,-0.39886 7.26913,2.40021 6.71378,6.53999 11.22306,17.598173 11.65225,28.575003 0.64258,16.43432 -6.11788,30.04745 -19.31065,38.88468 -6.30632,4.22432 -15.26233,7.18904 -22.83576,7.55936 -1.58047,0.0773 -3.34984,0.1748 -3.93193,0.2167 -0.58208,0.0419 -2.61808,-0.009 -4.52445,-0.114 z"
         id="path1409"
         sodipodi:nodetypes="csssssssssssssssssssscc" /></g></g></svg>
