<svg xmlns="http://www.w3.org/2000/svg" xmlns:xlink="http://www.w3.org/1999/xlink" width="860" height="579.33"><rect width="860" height="579.33" rx="5" ry="5" class="a"/><svg y="0%" x="0%"><circle cx="20" cy="20" r="6" fill="#ff5f58"/><circle cx="40" cy="20" r="6" fill="#ffbd2e"/><circle cx="60" cy="20" r="6" fill="#18c132"/></svg><svg height="499.33" viewBox="0 0 80 49.933" width="800" x="25" xmlns="http://www.w3.org/2000/svg" xmlns:xlink="http://www.w3.org/1999/xlink" y="60"><style>@keyframes m{0%{transform:translateX(0)}3.3%{transform:translateX(-320px)}17.7%{transform:translateX(-480px)}17.9%{transform:translateX(-560px)}22%{transform:translateX(-640px)}22.1%{transform:translateX(-720px)}25.1%{transform:translateX(-800px)}25.3%{transform:translateX(-880px)}26.7%{transform:translateX(-1040px)}31.3%{transform:translateX(-1280px)}32.8%{transform:translateX(-2480px)}33.1%{transform:translateX(-2720px)}to{transform:translateX(-2880px)}}.a{fill:#282d35}.f{fill:#b9c0cb;white-space:pre}.h{font-weight:700}.h,.i,.j,.o,.p{fill:#b9bfca;white-space:pre}.j,.o,.p{fill:#66c2cd}.o,.p{fill:#e88388}.p{fill:#6f7783}</style><g font-family="Monaco,Consolas,Menlo,'Bitstream Vera Sans Mono','Powerline Symbols',monospace" font-size="1.67"><defs><symbol id="1"><text x="1.002" y="1.67" class="f">&gt;</text></symbol><symbol id="2"><text x="1.002" y="1.67" class="f">&gt;</text><text x="3.006" y="1.67" style="white-space:pre" fill="#71bef2">fire</text></symbol><symbol id="3"><text y="1.67" class="h">Description:</text></symbol><symbol id="4"><text x="2.004" y="1.67" class="i">Show</text><text x="7.014" y="1.67" class="i">this</text><text x="12.024" y="1.67" class="i">help</text></symbol><symbol id="5"><text y="1.67" class="h">Usage:</text></symbol><symbol id="6"><text x="2.004" y="1.67" class="j">help</text><text x="7.014" y="1.67" class="h">[</text><text x="8.016" y="1.67" class="i">options</text><text x="15.03" y="1.67" class="h">]</text><text x="17.034" y="1.67" class="h">[&lt;command&gt;]</text></symbol><symbol id="7"><text y="1.67" class="h">Arguments:</text></symbol><symbol id="8"><text x="2.004" y="1.67" class="j">command</text><text x="13.026" y="1.67" class="f">Command</text><text x="21.042" y="1.67" class="f">to</text><text x="24.048" y="1.67" class="f">show</text><text x="29.058" y="1.67" class="f">help</text></symbol><symbol id="9"><text y="1.67" class="h">Global</text><text x="7.014" y="1.67" class="h">options:</text></symbol><symbol id="10"><text x="2.004" y="1.67" class="j">-v</text><text x="8.016" y="1.67" class="j">--verbose</text><text x="21.042" y="1.67" class="f">Verbose</text><text x="29.058" y="1.67" class="f">mode</text></symbol><symbol id="11"><text y="1.67" class="h">Available</text><text x="10.02" y="1.67" class="h">Commands:</text></symbol><symbol id="12"><text x="2.004" y="1.67" class="j">help</text><text x="13.026" y="1.67" class="f">Show</text><text x="18.036" y="1.67" class="f">this</text><text x="23.046" y="1.67" class="f">help</text></symbol><symbol id="13"><text x="2.004" y="1.67" class="j">version</text><text x="13.026" y="1.67" class="f">Display</text><text x="21.042" y="1.67" class="f">project</text><text x="29.058" y="1.67" class="f">version</text></symbol><symbol id="14"><text x="2.004" y="1.67" class="j">greet</text><text x="13.026" y="1.67" class="f">Greets</text><text x="20.04" y="1.67" class="f">the</text><text x="24.048" y="1.67" class="f">user.</text></symbol><symbol id="a"><path fill="transparent" d="M0 0h80v23H0z"/></symbol><symbol id="b"><path fill="#6f7683" d="M0 0h1.102v2.171H0z"/></symbol></defs><path class="a" d="M0 0h80v49.933H0z"/><g style="animation-duration:5.556624s;animation-iteration-count:infinite;animation-name:m;animation-timing-function:steps(1,end)"><svg width="2960"><svg><use xlink:href="#a"/><use xlink:href="#b" x="-.004"/></svg><svg x="80"><use xlink:href="#a"/><use xlink:href="#b" x="-.004"/></svg><svg x="160"><use xlink:href="#a"/><use xlink:href="#b" x="-.004"/></svg><svg x="240"><use xlink:href="#a"/><use xlink:href="#b" x="-.004"/></svg><svg x="320"><use xlink:href="#a"/><use xlink:href="#b" x="2.996"/><use xlink:href="#1"/></svg><svg x="400"><use xlink:href="#a"/><use xlink:href="#b" x="3.996"/><text x="1.002" y="1.67" class="f">&gt;</text><text x="3.006" y="1.67" class="f">f</text></svg><svg x="480"><use xlink:href="#a"/><use xlink:href="#b" x="3.996"/><text x="1.002" y="1.67" class="f">&gt;</text><text x="3.006" y="1.67" class="o">f</text></svg><svg x="560"><use xlink:href="#a"/><use xlink:href="#b" x="3.996"/><text x="1.002" y="1.67" class="f">&gt;</text><text x="3.006" y="1.67" class="o">f</text><text x="4.008" y="1.67" class="p">2fsslower-bpfcc</text></svg><svg x="640"><use xlink:href="#a"/><use xlink:href="#b" x="4.996"/><text x="1.002" y="1.67" class="f">&gt;</text><text x="3.006" y="1.67" class="o">fi</text></svg><svg x="720"><use xlink:href="#a"/><use xlink:href="#b" x="4.996"/><text x="1.002" y="1.67" class="f">&gt;</text><text x="3.006" y="1.67" class="o">fi</text><text x="5.01" y="1.67" class="p">ascotopnm</text></svg><svg x="800"><use xlink:href="#a"/><use xlink:href="#b" x="5.996"/><text x="1.002" y="1.67" class="f">&gt;</text><text x="3.006" y="1.67" class="o">fir</text></svg><svg x="880"><use xlink:href="#a"/><use xlink:href="#b" x="5.996"/><text x="1.002" y="1.67" class="f">&gt;</text><text x="3.006" y="1.67" class="o">fir</text><text x="6.012" y="1.67" class="p">e</text></svg><svg x="960"><use xlink:href="#a"/><use xlink:href="#b" x="6.996"/><text x="1.002" y="1.67" class="f">&gt;</text><text x="3.006" y="1.67" class="o">fire</text></svg><svg x="1040"><use xlink:href="#a"/><use xlink:href="#b" x="6.996"/><use xlink:href="#2"/></svg><svg x="1120"><use xlink:href="#a"/><use xlink:href="#b" x="-.004" y="2.146"/><use xlink:href="#2"/></svg><svg x="1200"><use xlink:href="#a"/><use xlink:href="#b" x="-.004" y="2.146"/><use xlink:href="#2"/></svg><svg x="1280"><use xlink:href="#a"/><use xlink:href="#b" x="-.004" y="2.146"/><use xlink:href="#2"/></svg><svg x="1360"><use xlink:href="#a"/><use xlink:href="#b" x="-.004" y="4.317"/><use xlink:href="#2"/><use xlink:href="#3" y="2.171"/></svg><svg x="1440"><use xlink:href="#a"/><use xlink:href="#b" x="-.004" y="6.488"/><use xlink:href="#2"/><use xlink:href="#3" y="2.171"/><use xlink:href="#4" y="4.342"/></svg><svg x="1520"><use xlink:href="#a"/><use xlink:href="#b" x="-.004" y="8.659"/><use xlink:href="#2"/><use xlink:href="#3" y="2.171"/><use xlink:href="#4" y="4.342"/></svg><svg x="1600"><use xlink:href="#a"/><use xlink:href="#b" x="-.004" y="10.83"/><use xlink:href="#2"/><use xlink:href="#3" y="2.171"/><use xlink:href="#4" y="4.342"/><use xlink:href="#5" y="8.684"/></svg><svg x="1680"><use xlink:href="#a"/><use xlink:href="#b" x="-.004" y="13.001"/><use xlink:href="#2"/><use xlink:href="#3" y="2.171"/><use xlink:href="#4" y="4.342"/><use xlink:href="#5" y="8.684"/><use xlink:href="#6" y="10.855"/></svg><svg x="1760"><use xlink:href="#a"/><use xlink:href="#b" x="-.004" y="15.172"/><use xlink:href="#2"/><use xlink:href="#3" y="2.171"/><use xlink:href="#4" y="4.342"/><use xlink:href="#5" y="8.684"/><use xlink:href="#6" y="10.855"/></svg><svg x="1840"><use xlink:href="#a"/><use xlink:href="#b" x="-.004" y="17.343"/><use xlink:href="#2"/><use xlink:href="#3" y="2.171"/><use xlink:href="#4" y="4.342"/><use xlink:href="#5" y="8.684"/><use xlink:href="#6" y="10.855"/><use xlink:href="#7" y="15.197"/></svg><svg x="1920"><use xlink:href="#a"/><use xlink:href="#b" x="-.004" y="19.514"/><use xlink:href="#2"/><use xlink:href="#3" y="2.171"/><use xlink:href="#4" y="4.342"/><use xlink:href="#5" y="8.684"/><use xlink:href="#6" y="10.855"/><use xlink:href="#7" y="15.197"/><use xlink:href="#8" y="17.368"/></svg><svg x="2000"><use xlink:href="#a"/><use xlink:href="#b" x="-.004" y="21.685"/><use xlink:href="#2"/><use xlink:href="#3" y="2.171"/><use xlink:href="#4" y="4.342"/><use xlink:href="#5" y="8.684"/><use xlink:href="#6" y="10.855"/><use xlink:href="#7" y="15.197"/><use xlink:href="#8" y="17.368"/></svg><svg x="2080"><use xlink:href="#a"/><use xlink:href="#b" x="-.004" y="23.856"/><use xlink:href="#2"/><use xlink:href="#3" y="2.171"/><use xlink:href="#4" y="4.342"/><use xlink:href="#5" y="8.684"/><use xlink:href="#6" y="10.855"/><use xlink:href="#7" y="15.197"/><use xlink:href="#8" y="17.368"/><use xlink:href="#9" y="21.71"/></svg><svg x="2160"><use xlink:href="#a"/><use xlink:href="#b" x="-.004" y="26.027"/><use xlink:href="#2"/><use xlink:href="#3" y="2.171"/><use xlink:href="#4" y="4.342"/><use xlink:href="#5" y="8.684"/><use xlink:href="#6" y="10.855"/><use xlink:href="#7" y="15.197"/><use xlink:href="#8" y="17.368"/><use xlink:href="#9" y="21.71"/><use xlink:href="#10" y="23.881"/></svg><svg x="2240"><use xlink:href="#a"/><use xlink:href="#b" x="-.004" y="28.198"/><use xlink:href="#2"/><use xlink:href="#3" y="2.171"/><use xlink:href="#4" y="4.342"/><use xlink:href="#5" y="8.684"/><use xlink:href="#6" y="10.855"/><use xlink:href="#7" y="15.197"/><use xlink:href="#8" y="17.368"/><use xlink:href="#9" y="21.71"/><use xlink:href="#10" y="23.881"/></svg><svg x="2320"><use xlink:href="#a"/><use xlink:href="#b" x="-.004" y="30.369"/><use xlink:href="#2"/><use xlink:href="#3" y="2.171"/><use xlink:href="#4" y="4.342"/><use xlink:href="#5" y="8.684"/><use xlink:href="#6" y="10.855"/><use xlink:href="#7" y="15.197"/><use xlink:href="#8" y="17.368"/><use xlink:href="#9" y="21.71"/><use xlink:href="#10" y="23.881"/><use xlink:href="#11" y="28.223"/></svg><svg x="2400"><use xlink:href="#a"/><use xlink:href="#b" x="-.004" y="36.882"/><use xlink:href="#2"/><use xlink:href="#3" y="2.171"/><use xlink:href="#4" y="4.342"/><use xlink:href="#5" y="8.684"/><use xlink:href="#6" y="10.855"/><use xlink:href="#7" y="15.197"/><use xlink:href="#8" y="17.368"/><use xlink:href="#9" y="21.71"/><use xlink:href="#10" y="23.881"/><use xlink:href="#11" y="28.223"/><use xlink:href="#12" y="30.394"/><use xlink:href="#13" y="32.565"/><use xlink:href="#14" y="34.736"/></svg><svg x="2480"><use xlink:href="#a"/><use xlink:href="#b" x="-.004" y="39.053"/><use xlink:href="#2"/><use xlink:href="#3" y="2.171"/><use xlink:href="#4" y="4.342"/><use xlink:href="#5" y="8.684"/><use xlink:href="#6" y="10.855"/><use xlink:href="#7" y="15.197"/><use xlink:href="#8" y="17.368"/><use xlink:href="#9" y="21.71"/><use xlink:href="#10" y="23.881"/><use xlink:href="#11" y="28.223"/><use xlink:href="#12" y="30.394"/><use xlink:href="#13" y="32.565"/><use xlink:href="#14" y="34.736"/></svg><svg x="2560"><use xlink:href="#a"/><use xlink:href="#b" x="-.004" y="39.053"/><use xlink:href="#2"/><use xlink:href="#3" y="2.171"/><use xlink:href="#4" y="4.342"/><use xlink:href="#5" y="8.684"/><use xlink:href="#6" y="10.855"/><use xlink:href="#7" y="15.197"/><use xlink:href="#8" y="17.368"/><use xlink:href="#9" y="21.71"/><use xlink:href="#10" y="23.881"/><use xlink:href="#11" y="28.223"/><use xlink:href="#12" y="30.394"/><use xlink:href="#13" y="32.565"/><use xlink:href="#14" y="34.736"/></svg><svg x="2640"><use xlink:href="#a"/><use xlink:href="#b" x="-.004" y="39.053"/><use xlink:href="#2"/><use xlink:href="#3" y="2.171"/><use xlink:href="#4" y="4.342"/><use xlink:href="#5" y="8.684"/><use xlink:href="#6" y="10.855"/><use xlink:href="#7" y="15.197"/><use xlink:href="#8" y="17.368"/><use xlink:href="#9" y="21.71"/><use xlink:href="#10" y="23.881"/><use xlink:href="#11" y="28.223"/><use xlink:href="#12" y="30.394"/><use xlink:href="#13" y="32.565"/><use xlink:href="#14" y="34.736"/></svg><svg x="2720"><use xlink:href="#a"/><use xlink:href="#b" x="2.996" y="39.053"/><use xlink:href="#2"/><use xlink:href="#3" y="2.171"/><use xlink:href="#4" y="4.342"/><use xlink:href="#5" y="8.684"/><use xlink:href="#6" y="10.855"/><use xlink:href="#7" y="15.197"/><use xlink:href="#8" y="17.368"/><use xlink:href="#9" y="21.71"/><use xlink:href="#10" y="23.881"/><use xlink:href="#11" y="28.223"/><use xlink:href="#12" y="30.394"/><use xlink:href="#13" y="32.565"/><use xlink:href="#14" y="34.736"/><use xlink:href="#1" y="39.078"/></svg><svg x="2800"><use xlink:href="#a"/><use xlink:href="#b" x="-.004" y="41.224"/><use xlink:href="#2"/><use xlink:href="#3" y="2.171"/><use xlink:href="#4" y="4.342"/><use xlink:href="#5" y="8.684"/><use xlink:href="#6" y="10.855"/><use xlink:href="#7" y="15.197"/><use xlink:href="#8" y="17.368"/><use xlink:href="#9" y="21.71"/><use xlink:href="#10" y="23.881"/><use xlink:href="#11" y="28.223"/><use xlink:href="#12" y="30.394"/><use xlink:href="#13" y="32.565"/><use xlink:href="#14" y="34.736"/><use xlink:href="#1" y="39.078"/></svg><svg x="2880"><use xlink:href="#a"/><use xlink:href="#b" x="-.004" y="41.224"/><use xlink:href="#2"/><use xlink:href="#3" y="2.171"/><use xlink:href="#4" y="4.342"/><use xlink:href="#5" y="8.684"/><use xlink:href="#6" y="10.855"/><use xlink:href="#7" y="15.197"/><use xlink:href="#8" y="17.368"/><use xlink:href="#9" y="21.71"/><use xlink:href="#10" y="23.881"/><use xlink:href="#11" y="28.223"/><use xlink:href="#12" y="30.394"/><use xlink:href="#13" y="32.565"/><use xlink:href="#14" y="34.736"/><use xlink:href="#1" y="39.078"/></svg></svg></g></g></svg></svg>