<svg xmlns="http://www.w3.org/2000/svg" xmlns:xlink="http://www.w3.org/1999/xlink" width="860" height="579.33"><rect width="860" height="579.33" rx="5" ry="5" class="a"/><svg y="0%" x="0%"><circle cx="20" cy="20" r="6" fill="#ff5f58"/><circle cx="40" cy="20" r="6" fill="#ffbd2e"/><circle cx="60" cy="20" r="6" fill="#18c132"/></svg><svg height="499.33" viewBox="0 0 80 49.933" width="800" x="25" xmlns="http://www.w3.org/2000/svg" xmlns:xlink="http://www.w3.org/1999/xlink" y="60"><style>@keyframes m{0%{transform:translateX(0)}1.3%{transform:translateX(-240px)}4.5%{transform:translateX(-480px)}5.2%{transform:translateX(-640px)}5.8%{transform:translateX(-720px)}5.9%{transform:translateX(-800px)}6.4%{transform:translateX(-960px)}7.8%{transform:translateX(-1040px)}9%{transform:translateX(-1200px)}10.4%{transform:translateX(-1280px)}10.9%{transform:translateX(-1360px)}12%{transform:translateX(-1440px)}13.2%{transform:translateX(-1520px)}16.1%{transform:translateX(-1760px)}16.6%{transform:translateX(-1920px)}16.7%{transform:translateX(-2080px)}23.5%{transform:translateX(-2320px)}24.6%{transform:translateX(-2400px)}25.6%{transform:translateX(-2480px)}26.2%{transform:translateX(-2640px)}28.2%{transform:translateX(-2720px)}29.6%{transform:translateX(-2880px)}31.3%{transform:translateX(-2960px)}32.1%{transform:translateX(-3040px)}33.5%{transform:translateX(-3120px)}34.5%{transform:translateX(-3200px)}35.9%{transform:translateX(-3360px)}38.1%{transform:translateX(-3520px)}39%{transform:translateX(-3600px)}40.4%{transform:translateX(-3680px)}45%{transform:translateX(-3920px)}45.6%{transform:translateX(-4080px)}45.7%{transform:translateX(-4400px)}50.7%{transform:translateX(-4560px)}51.8%{transform:translateX(-4640px)}52.9%{transform:translateX(-4720px)}53.4%{transform:translateX(-4880px)}56.1%{transform:translateX(-5040px)}57.2%{transform:translateX(-5200px)}58.8%{transform:translateX(-5280px)}60%{transform:translateX(-5360px)}61%{transform:translateX(-5440px)}62%{transform:translateX(-5520px)}63.7%{transform:translateX(-5680px)}65.7%{transform:translateX(-5840px)}66.6%{transform:translateX(-5920px)}67.3%{transform:translateX(-6080px)}72.6%{transform:translateX(-6240px)}74.1%{transform:translateX(-6400px)}75.9%{transform:translateX(-6480px)}79.2%{transform:translateX(-6640px)}80.3%{transform:translateX(-6800px)}85.2%{transform:translateX(-7040px)}85.7%{transform:translateX(-7120px)}85.8%{transform:translateX(-7200px)}85.9%{transform:translateX(-7360px)}to{transform:translateX(-7440px)}}.a{fill:#282d35}.f,.g,.h,.i,.j,.o{fill:#b9c0cb;white-space:pre}.g,.h,.i,.j,.o{fill:#71bef2}.h,.i,.j,.o{fill:#66c2cd}.i,.j,.o{fill:#a8cc8c}.j,.o{fill:#6f7783}.o{fill:#e88388}</style><g font-family="Monaco,Consolas,Menlo,'Bitstream Vera Sans Mono','Powerline Symbols',monospace" font-size="1.67"><defs><symbol id="1"><text x="1.002" y="1.67" class="f">&gt;</text></symbol><symbol id="2"><text x="1.002" y="1.67" class="f">&gt;</text><text x="3.006" y="1.67" class="f">f</text></symbol><symbol id="3"><text x="1.002" y="1.67" class="f">&gt;</text><text x="3.006" y="1.67" class="g">fire</text></symbol><symbol id="4"><text x="1.002" y="1.67" class="f">&gt;</text><text x="3.006" y="1.67" class="g">fire</text><text x="8.016" y="1.67" class="h">greet</text></symbol><symbol id="5"><text y="1.67" class="g">System</text><text x="7.014" y="1.67" class="g">user:</text><text x="13.026" y="1.67" class="g">rlizana</text></symbol><symbol id="6"><text y="1.67" class="i">Hello</text><text x="6.012" y="1.67" class="i">World?</text></symbol><symbol id="7"><text x="1.002" y="1.67" class="f">&gt;</text><text x="3.006" y="1.67" class="g">fire</text><text x="8.016" y="1.67" class="j">greet</text></symbol><symbol id="8"><text x="1.002" y="1.67" class="f">&gt;</text><text x="3.006" y="1.67" class="g">fire</text><text x="8.016" y="1.67" class="h">greet</text><text x="14.028" y="1.67" class="h">Rob</text></symbol><symbol id="9"><text y="1.67" class="i">Hello</text><text x="6.012" y="1.67" class="i">Rob?</text></symbol><symbol id="10"><text x="1.002" y="1.67" class="f">&gt;</text><text x="3.006" y="1.67" class="g">fire</text><text x="8.016" y="1.67" class="j">greet</text><text x="14.028" y="1.67" class="j">Rob</text></symbol><symbol id="11"><text x="1.002" y="1.67" class="f">&gt;</text><text x="3.006" y="1.67" class="g">fire</text><text x="8.016" y="1.67" class="h">greet</text><text x="14.028" y="1.67" class="j">Rob</text></symbol><symbol id="12"><text x="1.002" y="1.67" class="f">&gt;</text><text x="3.006" y="1.67" class="g">fire</text><text x="8.016" y="1.67" class="h">greet</text><text x="14.028" y="1.67" class="h">Rob</text><text x="18.036" y="1.67" class="h">-e</text></symbol><symbol id="13"><text x="1.002" y="1.67" class="f">&gt;</text><text x="3.006" y="1.67" class="g">fire</text><text x="8.016" y="1.67" class="h">greet</text><text x="14.028" y="1.67" class="h">Rob</text><text x="18.036" y="1.67" class="h">-e</text><text x="21.042" y="1.67" class="h">!</text></symbol><symbol id="14"><text y="1.67" class="i">Hello</text><text x="6.012" y="1.67" class="i">Rob!</text></symbol><symbol id="a"><path fill="transparent" d="M0 0h80v23H0z"/></symbol><symbol id="b"><path fill="#6f7683" d="M0 0h1.102v2.171H0z"/></symbol></defs><path class="a" d="M0 0h80v49.933H0z"/><g style="animation-duration:15.02378s;animation-iteration-count:infinite;animation-name:m;animation-timing-function:steps(1,end)"><svg width="7520"><svg><use xlink:href="#a"/><use xlink:href="#b" x="-.004"/></svg><svg x="80"><use xlink:href="#a"/><use xlink:href="#b" x="-.004"/></svg><svg x="160"><use xlink:href="#a"/><use xlink:href="#b" x="-.004"/></svg><svg x="240"><use xlink:href="#a"/><use xlink:href="#b" x="2.996"/><use xlink:href="#1"/></svg><svg x="320"><use xlink:href="#a"/><use xlink:href="#b" x="3.996"/><use xlink:href="#2"/></svg><svg x="400"><use xlink:href="#a"/><use xlink:href="#b" x="3.996"/><text x="1.002" y="1.67" class="f">&gt;</text><text x="3.006" y="1.67" class="o">f</text></svg><svg x="480"><use xlink:href="#a"/><use xlink:href="#b" x="3.996"/><text x="1.002" y="1.67" class="f">&gt;</text><text x="3.006" y="1.67" class="o">f</text><text x="4.008" y="1.67" class="j">2fsslower-bpfcc</text></svg><svg x="560"><use xlink:href="#a"/><use xlink:href="#b" x="4.996"/><text x="1.002" y="1.67" class="f">&gt;</text><text x="3.006" y="1.67" class="o">fi</text></svg><svg x="640"><use xlink:href="#a"/><use xlink:href="#b" x="4.996"/><text x="1.002" y="1.67" class="f">&gt;</text><text x="3.006" y="1.67" class="o">fi</text><text x="5.01" y="1.67" class="j">ascotopnm</text></svg><svg x="720"><use xlink:href="#a"/><use xlink:href="#b" x="5.996"/><text x="1.002" y="1.67" class="f">&gt;</text><text x="3.006" y="1.67" class="o">fir</text></svg><svg x="800"><use xlink:href="#a"/><use xlink:href="#b" x="5.996"/><text x="1.002" y="1.67" class="f">&gt;</text><text x="3.006" y="1.67" class="o">fir</text><text x="6.012" y="1.67" class="j">e</text></svg><svg x="880"><use xlink:href="#a"/><use xlink:href="#b" x="6.996"/><text x="1.002" y="1.67" class="f">&gt;</text><text x="3.006" y="1.67" class="o">fire</text></svg><svg x="960"><use xlink:href="#a"/><use xlink:href="#b" x="6.996"/><use xlink:href="#3"/></svg><svg x="1040"><use xlink:href="#a"/><use xlink:href="#b" x="7.996"/><use xlink:href="#3"/></svg><svg x="1120"><use xlink:href="#a"/><use xlink:href="#b" x="8.996"/><text x="1.002" y="1.67" class="f">&gt;</text><text x="3.006" y="1.67" class="g">fire</text><text x="8.016" y="1.67" class="f">g</text></svg><svg x="1200"><use xlink:href="#a"/><use xlink:href="#b" x="8.996"/><text x="1.002" y="1.67" class="f">&gt;</text><text x="3.006" y="1.67" class="g">fire</text><text x="8.016" y="1.67" class="h">g</text></svg><svg x="1280"><use xlink:href="#a"/><use xlink:href="#b" x="9.996"/><text x="1.002" y="1.67" class="f">&gt;</text><text x="3.006" y="1.67" class="g">fire</text><text x="8.016" y="1.67" class="h">gr</text></svg><svg x="1360"><use xlink:href="#a"/><use xlink:href="#b" x="10.996"/><text x="1.002" y="1.67" class="f">&gt;</text><text x="3.006" y="1.67" class="g">fire</text><text x="8.016" y="1.67" class="h">gre</text></svg><svg x="1440"><use xlink:href="#a"/><use xlink:href="#b" x="11.996"/><text x="1.002" y="1.67" class="f">&gt;</text><text x="3.006" y="1.67" class="g">fire</text><text x="8.016" y="1.67" class="h">gree</text></svg><svg x="1520"><use xlink:href="#a"/><use xlink:href="#b" x="12.996"/><use xlink:href="#4"/></svg><svg x="1600"><use xlink:href="#a"/><use xlink:href="#b" x="-.004" y="2.146"/><use xlink:href="#4"/></svg><svg x="1680"><use xlink:href="#a"/><use xlink:href="#b" x="-.004" y="2.146"/><use xlink:href="#4"/></svg><svg x="1760"><use xlink:href="#a"/><use xlink:href="#b" x="-.004" y="2.146"/><use xlink:href="#4"/></svg><svg x="1840"><use xlink:href="#a"/><use xlink:href="#b" x="-.004" y="4.317"/><use xlink:href="#4"/><use xlink:href="#5" y="2.171"/></svg><svg x="1920"><use xlink:href="#a"/><use xlink:href="#b" x="-.004" y="6.488"/><use xlink:href="#4"/><use xlink:href="#5" y="2.171"/><use xlink:href="#6" y="4.342"/></svg><svg x="2000"><use xlink:href="#a"/><use xlink:href="#b" x="-.004" y="6.488"/><use xlink:href="#4"/><use xlink:href="#5" y="2.171"/><use xlink:href="#6" y="4.342"/></svg><svg x="2080"><use xlink:href="#a"/><use xlink:href="#b" x="2.996" y="6.488"/><use xlink:href="#4"/><use xlink:href="#5" y="2.171"/><use xlink:href="#6" y="4.342"/><use xlink:href="#1" y="6.513"/></svg><svg x="2160"><use xlink:href="#a"/><use xlink:href="#b" x="3.996" y="6.488"/><use xlink:href="#4"/><use xlink:href="#5" y="2.171"/><use xlink:href="#6" y="4.342"/><use xlink:href="#2" y="6.513"/></svg><svg x="2240"><use xlink:href="#a"/><use xlink:href="#b" x="3.996" y="6.488"/><use xlink:href="#4"/><use xlink:href="#5" y="2.171"/><use xlink:href="#6" y="4.342"/><text x="1.002" y="8.183" class="f">&gt;</text><text x="3.006" y="8.183" class="f">f</text><text x="4.008" y="8.183" class="j">ire</text><text x="8.016" y="8.183" class="j">greet</text></svg><svg x="2320"><use xlink:href="#a"/><use xlink:href="#b" x="3.996" y="6.488"/><use xlink:href="#4"/><use xlink:href="#5" y="2.171"/><use xlink:href="#6" y="4.342"/><text x="1.002" y="8.183" class="f">&gt;</text><text x="3.006" y="8.183" class="o">f</text><text x="4.008" y="8.183" class="j">ire</text><text x="8.016" y="8.183" class="j">greet</text></svg><svg x="2400"><use xlink:href="#a"/><use xlink:href="#b" x="4.996" y="6.488"/><use xlink:href="#4"/><use xlink:href="#5" y="2.171"/><use xlink:href="#6" y="4.342"/><text x="1.002" y="8.183" class="f">&gt;</text><text x="3.006" y="8.183" class="o">fi</text><text x="5.01" y="8.183" class="j">re</text><text x="8.016" y="8.183" class="j">greet</text></svg><svg x="2480"><use xlink:href="#a"/><use xlink:href="#b" x="5.996" y="6.488"/><use xlink:href="#4"/><use xlink:href="#5" y="2.171"/><use xlink:href="#6" y="4.342"/><text x="1.002" y="8.183" class="f">&gt;</text><text x="3.006" y="8.183" class="o">fir</text><text x="6.012" y="8.183" class="j">e</text><text x="8.016" y="8.183" class="j">greet</text></svg><svg x="2560"><use xlink:href="#a"/><use xlink:href="#b" x="6.996" y="6.488"/><use xlink:href="#4"/><use xlink:href="#5" y="2.171"/><use xlink:href="#6" y="4.342"/><text x="1.002" y="8.183" class="f">&gt;</text><text x="3.006" y="8.183" class="o">fire</text><text x="8.016" y="8.183" class="j">greet</text></svg><svg x="2640"><use xlink:href="#a"/><use xlink:href="#b" x="6.996" y="6.488"/><use xlink:href="#4"/><use xlink:href="#5" y="2.171"/><use xlink:href="#6" y="4.342"/><use xlink:href="#7" y="6.513"/></svg><svg x="2720"><use xlink:href="#a"/><use xlink:href="#b" x="7.996" y="6.488"/><use xlink:href="#4"/><use xlink:href="#5" y="2.171"/><use xlink:href="#6" y="4.342"/><use xlink:href="#7" y="6.513"/></svg><svg x="2800"><use xlink:href="#a"/><use xlink:href="#b" x="8.996" y="6.488"/><use xlink:href="#4"/><use xlink:href="#5" y="2.171"/><use xlink:href="#6" y="4.342"/><text x="1.002" y="8.183" class="f">&gt;</text><text x="3.006" y="8.183" class="g">fire</text><text x="8.016" y="8.183" class="f">g</text><text x="9.018" y="8.183" class="j">reet</text></svg><svg x="2880"><use xlink:href="#a"/><use xlink:href="#b" x="8.996" y="6.488"/><use xlink:href="#4"/><use xlink:href="#5" y="2.171"/><use xlink:href="#6" y="4.342"/><text x="1.002" y="8.183" class="f">&gt;</text><text x="3.006" y="8.183" class="g">fire</text><text x="8.016" y="8.183" class="h">g</text><text x="9.018" y="8.183" class="j">reet</text></svg><svg x="2960"><use xlink:href="#a"/><use xlink:href="#b" x="9.996" y="6.488"/><use xlink:href="#4"/><use xlink:href="#5" y="2.171"/><use xlink:href="#6" y="4.342"/><text x="1.002" y="8.183" class="f">&gt;</text><text x="3.006" y="8.183" class="g">fire</text><text x="8.016" y="8.183" class="h">gr</text><text x="10.02" y="8.183" class="j">eet</text></svg><svg x="3040"><use xlink:href="#a"/><use xlink:href="#b" x="10.996" y="6.488"/><use xlink:href="#4"/><use xlink:href="#5" y="2.171"/><use xlink:href="#6" y="4.342"/><text x="1.002" y="8.183" class="f">&gt;</text><text x="3.006" y="8.183" class="g">fire</text><text x="8.016" y="8.183" class="h">gre</text><text x="11.022" y="8.183" class="j">et</text></svg><svg x="3120"><use xlink:href="#a"/><use xlink:href="#b" x="11.996" y="6.488"/><use xlink:href="#4"/><use xlink:href="#5" y="2.171"/><use xlink:href="#6" y="4.342"/><text x="1.002" y="8.183" class="f">&gt;</text><text x="3.006" y="8.183" class="g">fire</text><text x="8.016" y="8.183" class="h">gree</text><text x="12.024" y="8.183" class="j">t</text></svg><svg x="3200"><use xlink:href="#a"/><use xlink:href="#b" x="12.996" y="6.488"/><use xlink:href="#4"/><use xlink:href="#5" y="2.171"/><use xlink:href="#6" y="4.342"/><use xlink:href="#4" y="6.513"/></svg><svg x="3280"><use xlink:href="#a"/><use xlink:href="#b" x="13.996" y="6.488"/><use xlink:href="#4"/><use xlink:href="#5" y="2.171"/><use xlink:href="#6" y="4.342"/><use xlink:href="#4" y="6.513"/></svg><svg x="3360"><use xlink:href="#a"/><use xlink:href="#b" x="13.996" y="6.488"/><use xlink:href="#4"/><use xlink:href="#5" y="2.171"/><use xlink:href="#6" y="4.342"/><use xlink:href="#4" y="6.513"/></svg><svg x="3440"><use xlink:href="#a"/><use xlink:href="#b" x="14.996" y="6.488"/><use xlink:href="#4"/><use xlink:href="#5" y="2.171"/><use xlink:href="#6" y="4.342"/><text x="1.002" y="8.183" class="f">&gt;</text><text x="3.006" y="8.183" class="g">fire</text><text x="8.016" y="8.183" class="h">greet</text><text x="14.028" y="8.183" class="f">R</text></svg><svg x="3520"><use xlink:href="#a"/><use xlink:href="#b" x="14.996" y="6.488"/><use xlink:href="#4"/><use xlink:href="#5" y="2.171"/><use xlink:href="#6" y="4.342"/><text x="1.002" y="8.183" class="f">&gt;</text><text x="3.006" y="8.183" class="g">fire</text><text x="8.016" y="8.183" class="h">greet</text><text x="14.028" y="8.183" class="h">R</text><text x="15.03" y="8.183" class="j">ivate</text></svg><svg x="3600"><use xlink:href="#a"/><use xlink:href="#b" x="15.996" y="6.488"/><use xlink:href="#4"/><use xlink:href="#5" y="2.171"/><use xlink:href="#6" y="4.342"/><text x="1.002" y="8.183" class="f">&gt;</text><text x="3.006" y="8.183" class="g">fire</text><text x="8.016" y="8.183" class="h">greet</text><text x="14.028" y="8.183" class="h">Ro</text></svg><svg x="3680"><use xlink:href="#a"/><use xlink:href="#b" x="16.996" y="6.488"/><use xlink:href="#4"/><use xlink:href="#5" y="2.171"/><use xlink:href="#6" y="4.342"/><use xlink:href="#8" y="6.513"/></svg><svg x="3760"><use xlink:href="#a"/><use xlink:href="#b" x="-.004" y="8.659"/><use xlink:href="#4"/><use xlink:href="#5" y="2.171"/><use xlink:href="#6" y="4.342"/><use xlink:href="#8" y="6.513"/></svg><svg x="3840"><use xlink:href="#a"/><use xlink:href="#b" x="-.004" y="8.659"/><use xlink:href="#4"/><use xlink:href="#5" y="2.171"/><use xlink:href="#6" y="4.342"/><use xlink:href="#8" y="6.513"/></svg><svg x="3920"><use xlink:href="#a"/><use xlink:href="#b" x="-.004" y="8.659"/><use xlink:href="#4"/><use xlink:href="#5" y="2.171"/><use xlink:href="#6" y="4.342"/><use xlink:href="#8" y="6.513"/></svg><svg x="4000"><use xlink:href="#a"/><use xlink:href="#b" x="-.004" y="10.83"/><use xlink:href="#4"/><use xlink:href="#5" y="2.171"/><use xlink:href="#6" y="4.342"/><use xlink:href="#8" y="6.513"/><use xlink:href="#5" y="8.684"/></svg><svg x="4080"><use xlink:href="#a"/><use xlink:href="#b" x="-.004" y="13.001"/><use xlink:href="#4"/><use xlink:href="#5" y="2.171"/><use xlink:href="#6" y="4.342"/><use xlink:href="#8" y="6.513"/><use xlink:href="#5" y="8.684"/><use xlink:href="#9" y="10.855"/></svg><svg x="4160"><use xlink:href="#a"/><use xlink:href="#b" x="-.004" y="13.001"/><use xlink:href="#4"/><use xlink:href="#5" y="2.171"/><use xlink:href="#6" y="4.342"/><use xlink:href="#8" y="6.513"/><use xlink:href="#5" y="8.684"/><use xlink:href="#9" y="10.855"/></svg><svg x="4240"><use xlink:href="#a"/><use xlink:href="#b" x="-.004" y="13.001"/><use xlink:href="#4"/><use xlink:href="#5" y="2.171"/><use xlink:href="#6" y="4.342"/><use xlink:href="#8" y="6.513"/><use xlink:href="#5" y="8.684"/><use xlink:href="#9" y="10.855"/></svg><svg x="4320"><use xlink:href="#a"/><use xlink:href="#b" x="-.004" y="13.001"/><use xlink:href="#4"/><use xlink:href="#5" y="2.171"/><use xlink:href="#6" y="4.342"/><use xlink:href="#8" y="6.513"/><use xlink:href="#5" y="8.684"/><use xlink:href="#9" y="10.855"/></svg><svg x="4400"><use xlink:href="#a"/><use xlink:href="#b" x="2.996" y="13.001"/><use xlink:href="#4"/><use xlink:href="#5" y="2.171"/><use xlink:href="#6" y="4.342"/><use xlink:href="#8" y="6.513"/><use xlink:href="#5" y="8.684"/><use xlink:href="#9" y="10.855"/><use xlink:href="#1" y="13.026"/></svg><svg x="4480"><use xlink:href="#a"/><use xlink:href="#b" x="3.996" y="13.001"/><use xlink:href="#4"/><use xlink:href="#5" y="2.171"/><use xlink:href="#6" y="4.342"/><use xlink:href="#8" y="6.513"/><use xlink:href="#5" y="8.684"/><use xlink:href="#9" y="10.855"/><use xlink:href="#2" y="13.026"/></svg><svg x="4560"><use xlink:href="#a"/><use xlink:href="#b" x="3.996" y="13.001"/><use xlink:href="#4"/><use xlink:href="#5" y="2.171"/><use xlink:href="#6" y="4.342"/><use xlink:href="#8" y="6.513"/><use xlink:href="#5" y="8.684"/><use xlink:href="#9" y="10.855"/><text x="1.002" y="14.696" class="f">&gt;</text><text x="3.006" y="14.696" class="o">f</text><text x="4.008" y="14.696" class="j">ire</text><text x="8.016" y="14.696" class="j">greet</text><text x="14.028" y="14.696" class="j">Rob</text></svg><svg x="4640"><use xlink:href="#a"/><use xlink:href="#b" x="4.996" y="13.001"/><use xlink:href="#4"/><use xlink:href="#5" y="2.171"/><use xlink:href="#6" y="4.342"/><use xlink:href="#8" y="6.513"/><use xlink:href="#5" y="8.684"/><use xlink:href="#9" y="10.855"/><text x="1.002" y="14.696" class="f">&gt;</text><text x="3.006" y="14.696" class="o">fi</text><text x="5.01" y="14.696" class="j">re</text><text x="8.016" y="14.696" class="j">greet</text><text x="14.028" y="14.696" class="j">Rob</text></svg><svg x="4720"><use xlink:href="#a"/><use xlink:href="#b" x="5.996" y="13.001"/><use xlink:href="#4"/><use xlink:href="#5" y="2.171"/><use xlink:href="#6" y="4.342"/><use xlink:href="#8" y="6.513"/><use xlink:href="#5" y="8.684"/><use xlink:href="#9" y="10.855"/><text x="1.002" y="14.696" class="f">&gt;</text><text x="3.006" y="14.696" class="o">fir</text><text x="6.012" y="14.696" class="j">e</text><text x="8.016" y="14.696" class="j">greet</text><text x="14.028" y="14.696" class="j">Rob</text></svg><svg x="4800"><use xlink:href="#a"/><use xlink:href="#b" x="6.996" y="13.001"/><use xlink:href="#4"/><use xlink:href="#5" y="2.171"/><use xlink:href="#6" y="4.342"/><use xlink:href="#8" y="6.513"/><use xlink:href="#5" y="8.684"/><use xlink:href="#9" y="10.855"/><text x="1.002" y="14.696" class="f">&gt;</text><text x="3.006" y="14.696" class="o">fire</text><text x="8.016" y="14.696" class="j">greet</text><text x="14.028" y="14.696" class="j">Rob</text></svg><svg x="4880"><use xlink:href="#a"/><use xlink:href="#b" x="6.996" y="13.001"/><use xlink:href="#4"/><use xlink:href="#5" y="2.171"/><use xlink:href="#6" y="4.342"/><use xlink:href="#8" y="6.513"/><use xlink:href="#5" y="8.684"/><use xlink:href="#9" y="10.855"/><use xlink:href="#10" y="13.026"/></svg><svg x="4960"><use xlink:href="#a"/><use xlink:href="#b" x="7.996" y="13.001"/><use xlink:href="#4"/><use xlink:href="#5" y="2.171"/><use xlink:href="#6" y="4.342"/><use xlink:href="#8" y="6.513"/><use xlink:href="#5" y="8.684"/><use xlink:href="#9" y="10.855"/><use xlink:href="#10" y="13.026"/></svg><svg x="5040"><use xlink:href="#a"/><use xlink:href="#b" x="7.996" y="13.001"/><use xlink:href="#4"/><use xlink:href="#5" y="2.171"/><use xlink:href="#6" y="4.342"/><use xlink:href="#8" y="6.513"/><use xlink:href="#5" y="8.684"/><use xlink:href="#9" y="10.855"/><use xlink:href="#10" y="13.026"/></svg><svg x="5120"><use xlink:href="#a"/><use xlink:href="#b" x="8.996" y="13.001"/><use xlink:href="#4"/><use xlink:href="#5" y="2.171"/><use xlink:href="#6" y="4.342"/><use xlink:href="#8" y="6.513"/><use xlink:href="#5" y="8.684"/><use xlink:href="#9" y="10.855"/><text x="1.002" y="14.696" class="f">&gt;</text><text x="3.006" y="14.696" class="g">fire</text><text x="8.016" y="14.696" class="f">g</text><text x="9.018" y="14.696" class="j">reet</text><text x="14.028" y="14.696" class="j">Rob</text></svg><svg x="5200"><use xlink:href="#a"/><use xlink:href="#b" x="8.996" y="13.001"/><use xlink:href="#4"/><use xlink:href="#5" y="2.171"/><use xlink:href="#6" y="4.342"/><use xlink:href="#8" y="6.513"/><use xlink:href="#5" y="8.684"/><use xlink:href="#9" y="10.855"/><text x="1.002" y="14.696" class="f">&gt;</text><text x="3.006" y="14.696" class="g">fire</text><text x="8.016" y="14.696" class="h">g</text><text x="9.018" y="14.696" class="j">reet</text><text x="14.028" y="14.696" class="j">Rob</text></svg><svg x="5280"><use xlink:href="#a"/><use xlink:href="#b" x="9.996" y="13.001"/><use xlink:href="#4"/><use xlink:href="#5" y="2.171"/><use xlink:href="#6" y="4.342"/><use xlink:href="#8" y="6.513"/><use xlink:href="#5" y="8.684"/><use xlink:href="#9" y="10.855"/><text x="1.002" y="14.696" class="f">&gt;</text><text x="3.006" y="14.696" class="g">fire</text><text x="8.016" y="14.696" class="h">gr</text><text x="10.02" y="14.696" class="j">eet</text><text x="14.028" y="14.696" class="j">Rob</text></svg><svg x="5360"><use xlink:href="#a"/><use xlink:href="#b" x="10.996" y="13.001"/><use xlink:href="#4"/><use xlink:href="#5" y="2.171"/><use xlink:href="#6" y="4.342"/><use xlink:href="#8" y="6.513"/><use xlink:href="#5" y="8.684"/><use xlink:href="#9" y="10.855"/><text x="1.002" y="14.696" class="f">&gt;</text><text x="3.006" y="14.696" class="g">fire</text><text x="8.016" y="14.696" class="h">gre</text><text x="11.022" y="14.696" class="j">et</text><text x="14.028" y="14.696" class="j">Rob</text></svg><svg x="5440"><use xlink:href="#a"/><use xlink:href="#b" x="11.996" y="13.001"/><use xlink:href="#4"/><use xlink:href="#5" y="2.171"/><use xlink:href="#6" y="4.342"/><use xlink:href="#8" y="6.513"/><use xlink:href="#5" y="8.684"/><use xlink:href="#9" y="10.855"/><text x="1.002" y="14.696" class="f">&gt;</text><text x="3.006" y="14.696" class="g">fire</text><text x="8.016" y="14.696" class="h">gree</text><text x="12.024" y="14.696" class="j">t</text><text x="14.028" y="14.696" class="j">Rob</text></svg><svg x="5520"><use xlink:href="#a"/><use xlink:href="#b" x="12.996" y="13.001"/><use xlink:href="#4"/><use xlink:href="#5" y="2.171"/><use xlink:href="#6" y="4.342"/><use xlink:href="#8" y="6.513"/><use xlink:href="#5" y="8.684"/><use xlink:href="#9" y="10.855"/><use xlink:href="#11" y="13.026"/></svg><svg x="5600"><use xlink:href="#a"/><use xlink:href="#b" x="13.996" y="13.001"/><use xlink:href="#4"/><use xlink:href="#5" y="2.171"/><use xlink:href="#6" y="4.342"/><use xlink:href="#8" y="6.513"/><use xlink:href="#5" y="8.684"/><use xlink:href="#9" y="10.855"/><use xlink:href="#11" y="13.026"/></svg><svg x="5680"><use xlink:href="#a"/><use xlink:href="#b" x="13.996" y="13.001"/><use xlink:href="#4"/><use xlink:href="#5" y="2.171"/><use xlink:href="#6" y="4.342"/><use xlink:href="#8" y="6.513"/><use xlink:href="#5" y="8.684"/><use xlink:href="#9" y="10.855"/><use xlink:href="#11" y="13.026"/></svg><svg x="5760"><use xlink:href="#a"/><use xlink:href="#b" x="14.996" y="13.001"/><use xlink:href="#4"/><use xlink:href="#5" y="2.171"/><use xlink:href="#6" y="4.342"/><use xlink:href="#8" y="6.513"/><use xlink:href="#5" y="8.684"/><use xlink:href="#9" y="10.855"/><text x="1.002" y="14.696" class="f">&gt;</text><text x="3.006" y="14.696" class="g">fire</text><text x="8.016" y="14.696" class="h">greet</text><text x="14.028" y="14.696" class="f">R</text><text x="15.03" y="14.696" class="j">ob</text></svg><svg x="5840"><use xlink:href="#a"/><use xlink:href="#b" x="14.996" y="13.001"/><use xlink:href="#4"/><use xlink:href="#5" y="2.171"/><use xlink:href="#6" y="4.342"/><use xlink:href="#8" y="6.513"/><use xlink:href="#5" y="8.684"/><use xlink:href="#9" y="10.855"/><text x="1.002" y="14.696" class="f">&gt;</text><text x="3.006" y="14.696" class="g">fire</text><text x="8.016" y="14.696" class="h">greet</text><text x="14.028" y="14.696" class="h">R</text><text x="15.03" y="14.696" class="j">ob</text></svg><svg x="5920"><use xlink:href="#a"/><use xlink:href="#b" x="15.996" y="13.001"/><use xlink:href="#4"/><use xlink:href="#5" y="2.171"/><use xlink:href="#6" y="4.342"/><use xlink:href="#8" y="6.513"/><use xlink:href="#5" y="8.684"/><use xlink:href="#9" y="10.855"/><text x="1.002" y="14.696" class="f">&gt;</text><text x="3.006" y="14.696" class="g">fire</text><text x="8.016" y="14.696" class="h">greet</text><text x="14.028" y="14.696" class="h">Ro</text><text x="16.032" y="14.696" class="j">b</text></svg><svg x="6000"><use xlink:href="#a"/><use xlink:href="#b" x="16.996" y="13.001"/><use xlink:href="#4"/><use xlink:href="#5" y="2.171"/><use xlink:href="#6" y="4.342"/><use xlink:href="#8" y="6.513"/><use xlink:href="#5" y="8.684"/><use xlink:href="#9" y="10.855"/><use xlink:href="#8" y="13.026"/></svg><svg x="6080"><use xlink:href="#a"/><use xlink:href="#b" x="16.996" y="13.001"/><use xlink:href="#4"/><use xlink:href="#5" y="2.171"/><use xlink:href="#6" y="4.342"/><use xlink:href="#8" y="6.513"/><use xlink:href="#5" y="8.684"/><use xlink:href="#9" y="10.855"/><use xlink:href="#8" y="13.026"/></svg><svg x="6160"><use xlink:href="#a"/><use xlink:href="#b" x="17.996" y="13.001"/><use xlink:href="#4"/><use xlink:href="#5" y="2.171"/><use xlink:href="#6" y="4.342"/><use xlink:href="#8" y="6.513"/><use xlink:href="#5" y="8.684"/><use xlink:href="#9" y="10.855"/><use xlink:href="#8" y="13.026"/></svg><svg x="6240"><use xlink:href="#a"/><use xlink:href="#b" x="17.996" y="13.001"/><use xlink:href="#4"/><use xlink:href="#5" y="2.171"/><use xlink:href="#6" y="4.342"/><use xlink:href="#8" y="6.513"/><use xlink:href="#5" y="8.684"/><use xlink:href="#9" y="10.855"/><use xlink:href="#8" y="13.026"/></svg><svg x="6320"><use xlink:href="#a"/><use xlink:href="#b" x="18.996" y="13.001"/><use xlink:href="#4"/><use xlink:href="#5" y="2.171"/><use xlink:href="#6" y="4.342"/><use xlink:href="#8" y="6.513"/><use xlink:href="#5" y="8.684"/><use xlink:href="#9" y="10.855"/><text x="1.002" y="14.696" class="f">&gt;</text><text x="3.006" y="14.696" class="g">fire</text><text x="8.016" y="14.696" class="h">greet</text><text x="14.028" y="14.696" class="h">Rob</text><text x="18.036" y="14.696" class="f">-</text></svg><svg x="6400"><use xlink:href="#a"/><use xlink:href="#b" x="18.996" y="13.001"/><use xlink:href="#4"/><use xlink:href="#5" y="2.171"/><use xlink:href="#6" y="4.342"/><use xlink:href="#8" y="6.513"/><use xlink:href="#5" y="8.684"/><use xlink:href="#9" y="10.855"/><text x="1.002" y="14.696" class="f">&gt;</text><text x="3.006" y="14.696" class="g">fire</text><text x="8.016" y="14.696" class="h">greet</text><text x="14.028" y="14.696" class="h">Rob</text><text x="18.036" y="14.696" class="h">-</text></svg><svg x="6480"><use xlink:href="#a"/><use xlink:href="#b" x="19.996" y="13.001"/><use xlink:href="#4"/><use xlink:href="#5" y="2.171"/><use xlink:href="#6" y="4.342"/><use xlink:href="#8" y="6.513"/><use xlink:href="#5" y="8.684"/><use xlink:href="#9" y="10.855"/><use xlink:href="#12" y="13.026"/></svg><svg x="6560"><use xlink:href="#a"/><use xlink:href="#b" x="20.996" y="13.001"/><use xlink:href="#4"/><use xlink:href="#5" y="2.171"/><use xlink:href="#6" y="4.342"/><use xlink:href="#8" y="6.513"/><use xlink:href="#5" y="8.684"/><use xlink:href="#9" y="10.855"/><use xlink:href="#12" y="13.026"/></svg><svg x="6640"><use xlink:href="#a"/><use xlink:href="#b" x="20.996" y="13.001"/><use xlink:href="#4"/><use xlink:href="#5" y="2.171"/><use xlink:href="#6" y="4.342"/><use xlink:href="#8" y="6.513"/><use xlink:href="#5" y="8.684"/><use xlink:href="#9" y="10.855"/><use xlink:href="#12" y="13.026"/></svg><svg x="6720"><use xlink:href="#a"/><use xlink:href="#b" x="21.996" y="13.001"/><use xlink:href="#4"/><use xlink:href="#5" y="2.171"/><use xlink:href="#6" y="4.342"/><use xlink:href="#8" y="6.513"/><use xlink:href="#5" y="8.684"/><use xlink:href="#9" y="10.855"/><text x="1.002" y="14.696" class="f">&gt;</text><text x="3.006" y="14.696" class="g">fire</text><text x="8.016" y="14.696" class="h">greet</text><text x="14.028" y="14.696" class="h">Rob</text><text x="18.036" y="14.696" class="h">-e</text><text x="21.042" y="14.696" class="f">!</text></svg><svg x="6800"><use xlink:href="#a"/><use xlink:href="#b" x="21.996" y="13.001"/><use xlink:href="#4"/><use xlink:href="#5" y="2.171"/><use xlink:href="#6" y="4.342"/><use xlink:href="#8" y="6.513"/><use xlink:href="#5" y="8.684"/><use xlink:href="#9" y="10.855"/><use xlink:href="#13" y="13.026"/></svg><svg x="6880"><use xlink:href="#a"/><use xlink:href="#b" x="-.004" y="15.172"/><use xlink:href="#4"/><use xlink:href="#5" y="2.171"/><use xlink:href="#6" y="4.342"/><use xlink:href="#8" y="6.513"/><use xlink:href="#5" y="8.684"/><use xlink:href="#9" y="10.855"/><use xlink:href="#13" y="13.026"/></svg><svg x="6960"><use xlink:href="#a"/><use xlink:href="#b" x="-.004" y="15.172"/><use xlink:href="#4"/><use xlink:href="#5" y="2.171"/><use xlink:href="#6" y="4.342"/><use xlink:href="#8" y="6.513"/><use xlink:href="#5" y="8.684"/><use xlink:href="#9" y="10.855"/><use xlink:href="#13" y="13.026"/></svg><svg x="7040"><use xlink:href="#a"/><use xlink:href="#b" x="-.004" y="15.172"/><use xlink:href="#4"/><use xlink:href="#5" y="2.171"/><use xlink:href="#6" y="4.342"/><use xlink:href="#8" y="6.513"/><use xlink:href="#5" y="8.684"/><use xlink:href="#9" y="10.855"/><use xlink:href="#13" y="13.026"/></svg><svg x="7120"><use xlink:href="#a"/><use xlink:href="#b" x="-.004" y="17.343"/><use xlink:href="#4"/><use xlink:href="#5" y="2.171"/><use xlink:href="#6" y="4.342"/><use xlink:href="#8" y="6.513"/><use xlink:href="#5" y="8.684"/><use xlink:href="#9" y="10.855"/><use xlink:href="#13" y="13.026"/><use xlink:href="#5" y="15.197"/></svg><svg x="7200"><use xlink:href="#a"/><use xlink:href="#b" x="-.004" y="19.514"/><use xlink:href="#4"/><use xlink:href="#5" y="2.171"/><use xlink:href="#6" y="4.342"/><use xlink:href="#8" y="6.513"/><use xlink:href="#5" y="8.684"/><use xlink:href="#9" y="10.855"/><use xlink:href="#13" y="13.026"/><use xlink:href="#5" y="15.197"/><use xlink:href="#14" y="17.368"/></svg><svg x="7280"><use xlink:href="#a"/><use xlink:href="#b" x="-.004" y="19.514"/><use xlink:href="#4"/><use xlink:href="#5" y="2.171"/><use xlink:href="#6" y="4.342"/><use xlink:href="#8" y="6.513"/><use xlink:href="#5" y="8.684"/><use xlink:href="#9" y="10.855"/><use xlink:href="#13" y="13.026"/><use xlink:href="#5" y="15.197"/><use xlink:href="#14" y="17.368"/></svg><svg x="7360"><use xlink:href="#a"/><use xlink:href="#b" x="2.996" y="19.514"/><use xlink:href="#4"/><use xlink:href="#5" y="2.171"/><use xlink:href="#6" y="4.342"/><use xlink:href="#8" y="6.513"/><use xlink:href="#5" y="8.684"/><use xlink:href="#9" y="10.855"/><use xlink:href="#13" y="13.026"/><use xlink:href="#5" y="15.197"/><use xlink:href="#14" y="17.368"/><use xlink:href="#1" y="19.539"/></svg><svg x="7440"><use xlink:href="#a"/><use xlink:href="#b" x="-.004" y="21.685"/><use xlink:href="#4"/><use xlink:href="#5" y="2.171"/><use xlink:href="#6" y="4.342"/><use xlink:href="#8" y="6.513"/><use xlink:href="#5" y="8.684"/><use xlink:href="#9" y="10.855"/><use xlink:href="#13" y="13.026"/><use xlink:href="#5" y="15.197"/><use xlink:href="#14" y="17.368"/><use xlink:href="#1" y="19.539"/></svg></svg></g></g></svg></svg>