<svg xmlns="http://www.w3.org/2000/svg" xmlns:xlink="http://www.w3.org/1999/xlink" width="860" height="579.33"><rect width="860" height="579.33" rx="5" ry="5" class="a"/><svg y="0%" x="0%"><circle cx="20" cy="20" r="6" fill="#ff5f58"/><circle cx="40" cy="20" r="6" fill="#ffbd2e"/><circle cx="60" cy="20" r="6" fill="#18c132"/></svg><svg height="499.33" viewBox="0 0 80 49.933" width="800" x="25" xmlns="http://www.w3.org/2000/svg" xmlns:xlink="http://www.w3.org/1999/xlink" y="60"><style>@keyframes o{0%{transform:translateX(0)}3.8%{transform:translateX(-240px)}17.9%{transform:translateX(-400px)}33.4%{transform:translateX(-640px)}41.3%{transform:translateX(-800px)}41.8%{transform:translateX(-960px)}to{transform:translateX(-1120px)}}.a{fill:#282d35}.f,.h,.j{fill:#b9c0cb;white-space:pre}.h,.j{fill:#66c2cd}.j{fill:#dbab79}.k{font-weight:700}.k,.l{fill:#a8cc8c;white-space:pre}</style><g font-family="Monaco,Consolas,Menlo,'Bitstream Vera Sans Mono','Powerline Symbols',monospace" font-size="1.67"><defs><symbol id="1"><text x="1.002" y="1.67" class="f">&gt;</text></symbol><symbol id="2"><text x="1.002" y="1.67" class="f">&gt;</text><text x="3.006" y="1.67" style="white-space:pre" fill="#71bef2">poetry</text><text x="10.02" y="1.67" class="h">run</text><text x="14.028" y="1.67" class="h">python</text><text x="21.042" y="1.67" style="white-space:pre" fill="#66c2cd" text-decoration="underline">app_template.py</text><text x="37.074" y="1.67" class="h">hello</text><text x="43.086" y="1.67" class="j">&quot;My</text><text x="47.094" y="1.67" class="j">title&quot;</text></symbol><symbol id="3"><text y="1.67" class="f">My</text><text x="3.006" y="1.67" class="f">title</text></symbol><symbol id="4"><text y="1.67" class="k">&lt;h1</text><text x="3.006" y="1.67" class="l">&gt;My</text><text x="7.014" y="1.67" class="l">title&lt;/h1&gt;</text></symbol><symbol id="5"><text y="1.67" class="l">&lt;ul&gt;</text></symbol><symbol id="6"><text x="8.016" y="1.67" class="l">&lt;li&gt;</text><text x="12.024" y="1.67" class="k">1</text><text x="13.026" y="1.67" class="l">&lt;/li&gt;</text></symbol><symbol id="7"><text x="8.016" y="1.67" class="l">&lt;li&gt;</text><text x="12.024" y="1.67" class="k">2</text><text x="13.026" y="1.67" class="l">&lt;/li&gt;</text></symbol><symbol id="8"><text x="8.016" y="1.67" class="l">&lt;li&gt;</text><text x="12.024" y="1.67" class="k">3</text><text x="13.026" y="1.67" class="l">&lt;/li&gt;</text></symbol><symbol id="9"><text y="1.67" class="l">&lt;/ul</text><text x="4.008" y="1.67" class="k">&gt;</text></symbol><symbol id="a"><path fill="transparent" d="M0 0h80v23H0z"/></symbol><symbol id="b"><path fill="#6f7683" d="M0 0h1.102v2.171H0z"/></symbol></defs><path class="a" d="M0 0h80v49.933H0z"/><g style="animation-duration:4.944299s;animation-iteration-count:infinite;animation-name:o;animation-timing-function:steps(1,end)"><svg width="1200"><svg><use xlink:href="#a"/><use xlink:href="#b" x="-.004"/></svg><svg x="80"><use xlink:href="#a"/><use xlink:href="#b" x="-.004"/></svg><svg x="160"><use xlink:href="#a"/><use xlink:href="#b" x="-.004"/></svg><svg x="240"><use xlink:href="#a"/><use xlink:href="#b" x="2.996"/><use xlink:href="#1"/></svg><svg x="320"><use xlink:href="#a"/><use xlink:href="#b" x="52.996"/><text x="1.002" y="1.67" class="f">&gt;</text><text x="3.006" y="1.67" class="f">poetry</text><text x="10.02" y="1.67" class="f">run</text><text x="14.028" y="1.67" class="f">python</text><text x="21.042" y="1.67" class="f">app_template.py</text><text x="37.074" y="1.67" class="f">hello</text><text x="43.086" y="1.67" class="f">&quot;My</text><text x="47.094" y="1.67" class="f">title&quot;</text></svg><svg x="400"><use xlink:href="#a"/><use xlink:href="#b" x="52.996"/><use xlink:href="#2"/></svg><svg x="480"><use xlink:href="#a"/><use xlink:href="#b" x="-.004" y="2.146"/><use xlink:href="#2"/></svg><svg x="560"><use xlink:href="#a"/><use xlink:href="#b" x="-.004" y="2.146"/><use xlink:href="#2"/></svg><svg x="640"><use xlink:href="#a"/><use xlink:href="#b" x="-.004" y="2.146"/><use xlink:href="#2"/></svg><svg x="720"><use xlink:href="#a"/><use xlink:href="#b" x="-.004" y="4.317"/><use xlink:href="#2"/><use xlink:href="#3" y="2.171"/></svg><svg x="800"><use xlink:href="#a"/><use xlink:href="#b" x="-.004" y="26.027"/><use xlink:href="#2"/><use xlink:href="#3" y="2.171"/><use xlink:href="#4" y="4.342"/><use xlink:href="#5" y="6.513"/><use xlink:href="#6" y="10.855"/><use xlink:href="#7" y="15.197"/><use xlink:href="#8" y="19.539"/><use xlink:href="#9" y="23.881"/></svg><svg x="880"><use xlink:href="#a"/><use xlink:href="#b" x="-.004" y="26.027"/><use xlink:href="#2"/><use xlink:href="#3" y="2.171"/><use xlink:href="#4" y="4.342"/><use xlink:href="#5" y="6.513"/><use xlink:href="#6" y="10.855"/><use xlink:href="#7" y="15.197"/><use xlink:href="#8" y="19.539"/><use xlink:href="#9" y="23.881"/></svg><svg x="960"><use xlink:href="#a"/><use xlink:href="#b" x="2.996" y="26.027"/><use xlink:href="#2"/><use xlink:href="#3" y="2.171"/><use xlink:href="#4" y="4.342"/><use xlink:href="#5" y="6.513"/><use xlink:href="#6" y="10.855"/><use xlink:href="#7" y="15.197"/><use xlink:href="#8" y="19.539"/><use xlink:href="#9" y="23.881"/><use xlink:href="#1" y="26.052"/></svg><svg x="1040"><use xlink:href="#a"/><use xlink:href="#b" x="-.004" y="28.198"/><use xlink:href="#2"/><use xlink:href="#3" y="2.171"/><use xlink:href="#4" y="4.342"/><use xlink:href="#5" y="6.513"/><use xlink:href="#6" y="10.855"/><use xlink:href="#7" y="15.197"/><use xlink:href="#8" y="19.539"/><use xlink:href="#9" y="23.881"/><use xlink:href="#1" y="26.052"/></svg><svg x="1120"><use xlink:href="#a"/><use xlink:href="#b" x="-.004" y="28.198"/><use xlink:href="#2"/><use xlink:href="#3" y="2.171"/><use xlink:href="#4" y="4.342"/><use xlink:href="#5" y="6.513"/><use xlink:href="#6" y="10.855"/><use xlink:href="#7" y="15.197"/><use xlink:href="#8" y="19.539"/><use xlink:href="#9" y="23.881"/><use xlink:href="#1" y="26.052"/></svg></svg></g></g></svg></svg>