<svg xmlns="http://www.w3.org/2000/svg" xmlns:xlink="http://www.w3.org/1999/xlink" width="860" height="579.33"><rect width="860" height="579.33" rx="5" ry="5" class="a"/><svg y="0%" x="0%"><circle cx="20" cy="20" r="6" fill="#ff5f58"/><circle cx="40" cy="20" r="6" fill="#ffbd2e"/><circle cx="60" cy="20" r="6" fill="#18c132"/></svg><svg height="499.33" viewBox="0 0 80 49.933" width="800" x="25" xmlns="http://www.w3.org/2000/svg" xmlns:xlink="http://www.w3.org/1999/xlink" y="60"><style>@keyframes n{0%{transform:translateX(0)}1.5%{transform:translateX(-160px)}5.6%{transform:translateX(-320px)}5.7%{transform:translateX(-400px)}6.2%{transform:translateX(-480px)}6.3%{transform:translateX(-560px)}7.1%{transform:translateX(-640px)}7.2%{transform:translateX(-720px)}8%{transform:translateX(-880px)}9%{transform:translateX(-960px)}10%{transform:translateX(-1120px)}11.3%{transform:translateX(-1280px)}12.4%{transform:translateX(-1440px)}13.3%{transform:translateX(-1520px)}14.4%{transform:translateX(-1600px)}15.3%{transform:translateX(-1760px)}16.2%{transform:translateX(-1920px)}17.7%{transform:translateX(-2000px)}18.6%{transform:translateX(-2080px)}19.7%{transform:translateX(-2160px)}20.7%{transform:translateX(-2240px)}21.5%{transform:translateX(-2320px)}22.5%{transform:translateX(-2480px)}24.2%{transform:translateX(-2720px)}25.1%{transform:translateX(-2800px)}26.3%{transform:translateX(-2880px)}29%{transform:translateX(-3040px)}30.8%{transform:translateX(-3120px)}31.4%{transform:translateX(-3200px)}32.2%{transform:translateX(-3280px)}34%{transform:translateX(-3360px)}35.1%{transform:translateX(-3440px)}35.8%{transform:translateX(-3520px)}37.6%{transform:translateX(-3600px)}39.4%{transform:translateX(-3680px)}41.5%{transform:translateX(-3760px)}42.9%{transform:translateX(-3920px)}50.6%{transform:translateX(-4080px)}50.9%{transform:translateX(-4160px)}51.6%{transform:translateX(-4240px)}52.2%{transform:translateX(-4320px)}52.9%{transform:translateX(-4400px)}53.7%{transform:translateX(-4480px)}57.5%{transform:translateX(-4720px)}61.1%{transform:translateX(-4800px)}61.3%{transform:translateX(-4960px)}to{transform:translateX(-5120px)}}.a{fill:#282d35}.f,.g{fill:#b9c0cb;white-space:pre}.g{fill:#71bef2}.h,.i{fill:#66c2cd}.h{white-space:pre}.i{text-decoration:underline}.i,.j,.k,.p,.q{white-space:pre}.j{fill:#b9c0cb;font-weight:700}.k,.p,.q{fill:#a8cc8c}.p,.q{fill:#e88388}.q{fill:#6f7783}</style><g font-family="Monaco,Consolas,Menlo,'Bitstream Vera Sans Mono','Powerline Symbols',monospace" font-size="1.67"><defs><symbol id="1"><text x="1.002" y="1.67" class="f">&gt;</text></symbol><symbol id="2"><text x="1.002" y="1.67" class="f">&gt;</text><text x="3.006" y="1.67" class="g">poetry</text></symbol><symbol id="3"><text x="1.002" y="1.67" class="f">&gt;</text><text x="3.006" y="1.67" class="g">poetry</text><text x="10.02" y="1.67" class="h">run</text></symbol><symbol id="4"><text x="1.002" y="1.67" class="f">&gt;</text><text x="3.006" y="1.67" class="g">poetry</text><text x="10.02" y="1.67" class="h">run</text><text x="14.028" y="1.67" class="h">python</text></symbol><symbol id="5"><text x="1.002" y="1.67" class="f">&gt;</text><text x="3.006" y="1.67" class="g">poetry</text><text x="10.02" y="1.67" class="h">run</text><text x="14.028" y="1.67" class="h">python</text><text x="21.042" y="1.67" class="i">app_config.py</text></symbol><symbol id="6"><text x="1.002" y="1.67" class="f">&gt;</text><text x="3.006" y="1.67" class="g">poetry</text><text x="10.02" y="1.67" class="h">run</text><text x="14.028" y="1.67" class="h">python</text><text x="21.042" y="1.67" class="i">app_config.py</text><text x="35.07" y="1.67" class="h">config</text></symbol><symbol id="7"><text y="1.67" class="j">{</text><text x="1.002" y="1.67" class="k">&apos;_config_file&apos;</text><text x="15.03" y="1.67" class="f">:</text><text x="17.034" y="1.67" class="k">&apos;/home/rlizana/.myapp.yml&apos;</text><text x="43.086" y="1.67" class="f">,</text><text x="45.09" y="1.67" class="k">&apos;_config_path&apos;</text><text x="59.118" y="1.67" class="f">:</text><text x="61.122" y="1.67" class="k">&apos;/home/rlizana&apos;</text><text x="76.152" y="1.67" class="f">,</text></symbol><symbol id="8"><text y="1.67" class="k">&apos;my_new_var&apos;</text><text x="12.024" y="1.67" class="f">:</text><text x="14.028" y="1.67" class="k">&apos;My</text><text x="18.036" y="1.67" class="k">new</text><text x="22.044" y="1.67" class="k">var&apos;</text><text x="26.052" y="1.67" class="j">}</text></symbol><symbol id="a"><path fill="transparent" d="M0 0h80v23H0z"/></symbol><symbol id="b"><path fill="#6f7683" d="M0 0h1.102v2.171H0z"/></symbol></defs><path class="a" d="M0 0h80v49.933H0z"/><g style="animation-duration:11.596907s;animation-iteration-count:infinite;animation-name:n;animation-timing-function:steps(1,end)"><svg width="5200"><svg><use xlink:href="#a"/><use xlink:href="#b" x="-.004"/></svg><svg x="80"><use xlink:href="#a"/><use xlink:href="#b" x="-.004"/></svg><svg x="160"><use xlink:href="#a"/><use xlink:href="#b" x="2.996"/><use xlink:href="#1"/></svg><svg x="240"><use xlink:href="#a"/><use xlink:href="#b" x="3.996"/><text x="1.002" y="1.67" class="f">&gt;</text><text x="3.006" y="1.67" class="f">p</text></svg><svg x="320"><use xlink:href="#a"/><use xlink:href="#b" x="3.996"/><text x="1.002" y="1.67" class="f">&gt;</text><text x="3.006" y="1.67" class="p">p</text></svg><svg x="400"><use xlink:href="#a"/><use xlink:href="#b" x="3.996"/><text x="1.002" y="1.67" class="f">&gt;</text><text x="3.006" y="1.67" class="p">p</text><text x="4.008" y="1.67" class="q">7content</text></svg><svg x="480"><use xlink:href="#a"/><use xlink:href="#b" x="4.996"/><text x="1.002" y="1.67" class="f">&gt;</text><text x="3.006" y="1.67" class="p">po</text></svg><svg x="560"><use xlink:href="#a"/><use xlink:href="#b" x="4.996"/><text x="1.002" y="1.67" class="f">&gt;</text><text x="3.006" y="1.67" class="p">po</text><text x="5.01" y="1.67" class="q">d2html</text></svg><svg x="640"><use xlink:href="#a"/><use xlink:href="#b" x="5.996"/><text x="1.002" y="1.67" class="f">&gt;</text><text x="3.006" y="1.67" class="p">poe</text></svg><svg x="720"><use xlink:href="#a"/><use xlink:href="#b" x="5.996"/><text x="1.002" y="1.67" class="f">&gt;</text><text x="3.006" y="1.67" class="p">poe</text><text x="6.012" y="1.67" class="q">dit</text></svg><svg x="800"><use xlink:href="#a"/><use xlink:href="#b" x="6.996"/><text x="1.002" y="1.67" class="f">&gt;</text><text x="3.006" y="1.67" class="p">poet</text></svg><svg x="880"><use xlink:href="#a"/><use xlink:href="#b" x="6.996"/><text x="1.002" y="1.67" class="f">&gt;</text><text x="3.006" y="1.67" class="p">poet</text><text x="7.014" y="1.67" class="q">ry</text></svg><svg x="960"><use xlink:href="#a"/><use xlink:href="#b" x="7.996"/><text x="1.002" y="1.67" class="f">&gt;</text><text x="3.006" y="1.67" class="p">poetr</text><text x="8.016" y="1.67" class="q">y</text></svg><svg x="1040"><use xlink:href="#a"/><use xlink:href="#b" x="8.996"/><text x="1.002" y="1.67" class="f">&gt;</text><text x="3.006" y="1.67" class="p">poetry</text></svg><svg x="1120"><use xlink:href="#a"/><use xlink:href="#b" x="8.996"/><use xlink:href="#2"/></svg><svg x="1200"><use xlink:href="#a"/><use xlink:href="#b" x="9.996"/><use xlink:href="#2"/></svg><svg x="1280"><use xlink:href="#a"/><use xlink:href="#b" x="9.996"/><use xlink:href="#2"/></svg><svg x="1360"><use xlink:href="#a"/><use xlink:href="#b" x="10.996"/><text x="1.002" y="1.67" class="f">&gt;</text><text x="3.006" y="1.67" class="g">poetry</text><text x="10.02" y="1.67" class="f">r</text></svg><svg x="1440"><use xlink:href="#a"/><use xlink:href="#b" x="10.996"/><text x="1.002" y="1.67" class="f">&gt;</text><text x="3.006" y="1.67" class="g">poetry</text><text x="10.02" y="1.67" class="h">r</text></svg><svg x="1520"><use xlink:href="#a"/><use xlink:href="#b" x="11.996"/><text x="1.002" y="1.67" class="f">&gt;</text><text x="3.006" y="1.67" class="g">poetry</text><text x="10.02" y="1.67" class="h">ru</text></svg><svg x="1600"><use xlink:href="#a"/><use xlink:href="#b" x="12.996"/><use xlink:href="#3"/></svg><svg x="1680"><use xlink:href="#a"/><use xlink:href="#b" x="13.996"/><use xlink:href="#3"/></svg><svg x="1760"><use xlink:href="#a"/><use xlink:href="#b" x="13.996"/><use xlink:href="#3"/></svg><svg x="1840"><use xlink:href="#a"/><use xlink:href="#b" x="14.996"/><text x="1.002" y="1.67" class="f">&gt;</text><text x="3.006" y="1.67" class="g">poetry</text><text x="10.02" y="1.67" class="h">run</text><text x="14.028" y="1.67" class="f">p</text></svg><svg x="1920"><use xlink:href="#a"/><use xlink:href="#b" x="14.996"/><text x="1.002" y="1.67" class="f">&gt;</text><text x="3.006" y="1.67" class="g">poetry</text><text x="10.02" y="1.67" class="h">run</text><text x="14.028" y="1.67" class="h">p</text></svg><svg x="2000"><use xlink:href="#a"/><use xlink:href="#b" x="15.996"/><text x="1.002" y="1.67" class="f">&gt;</text><text x="3.006" y="1.67" class="g">poetry</text><text x="10.02" y="1.67" class="h">run</text><text x="14.028" y="1.67" class="h">py</text></svg><svg x="2080"><use xlink:href="#a"/><use xlink:href="#b" x="16.996"/><text x="1.002" y="1.67" class="f">&gt;</text><text x="3.006" y="1.67" class="g">poetry</text><text x="10.02" y="1.67" class="h">run</text><text x="14.028" y="1.67" class="h">pyt</text></svg><svg x="2160"><use xlink:href="#a"/><use xlink:href="#b" x="17.996"/><text x="1.002" y="1.67" class="f">&gt;</text><text x="3.006" y="1.67" class="g">poetry</text><text x="10.02" y="1.67" class="h">run</text><text x="14.028" y="1.67" class="h">pyth</text></svg><svg x="2240"><use xlink:href="#a"/><use xlink:href="#b" x="18.996"/><text x="1.002" y="1.67" class="f">&gt;</text><text x="3.006" y="1.67" class="g">poetry</text><text x="10.02" y="1.67" class="h">run</text><text x="14.028" y="1.67" class="h">pytho</text></svg><svg x="2320"><use xlink:href="#a"/><use xlink:href="#b" x="19.996"/><use xlink:href="#4"/></svg><svg x="2400"><use xlink:href="#a"/><use xlink:href="#b" x="20.996"/><use xlink:href="#4"/></svg><svg x="2480"><use xlink:href="#a"/><use xlink:href="#b" x="20.996"/><use xlink:href="#4"/></svg><svg x="2560"><use xlink:href="#a"/><use xlink:href="#b" x="21.996"/><text x="1.002" y="1.67" class="f">&gt;</text><text x="3.006" y="1.67" class="g">poetry</text><text x="10.02" y="1.67" class="h">run</text><text x="14.028" y="1.67" class="h">python</text><text x="21.042" y="1.67" class="f">a</text></svg><svg x="2640"><use xlink:href="#a"/><use xlink:href="#b" x="21.996"/><text x="1.002" y="1.67" class="f">&gt;</text><text x="3.006" y="1.67" class="g">poetry</text><text x="10.02" y="1.67" class="h">run</text><text x="14.028" y="1.67" class="h">python</text><text x="21.042" y="1.67" class="i">a</text></svg><svg x="2720"><use xlink:href="#a"/><use xlink:href="#b" x="21.996"/><text x="1.002" y="1.67" class="f">&gt;</text><text x="3.006" y="1.67" class="g">poetry</text><text x="10.02" y="1.67" class="h">run</text><text x="14.028" y="1.67" class="h">python</text><text x="21.042" y="1.67" class="i">a</text><text x="22.044" y="1.67" class="q">pp.py</text></svg><svg x="2800"><use xlink:href="#a"/><use xlink:href="#b" x="22.996"/><text x="1.002" y="1.67" class="f">&gt;</text><text x="3.006" y="1.67" class="g">poetry</text><text x="10.02" y="1.67" class="h">run</text><text x="14.028" y="1.67" class="h">python</text><text x="21.042" y="1.67" class="i">ap</text><text x="23.046" y="1.67" class="q">p.py</text></svg><svg x="2880"><use xlink:href="#a"/><use xlink:href="#b" x="23.996"/><text x="1.002" y="1.67" class="f">&gt;</text><text x="3.006" y="1.67" class="g">poetry</text><text x="10.02" y="1.67" class="h">run</text><text x="14.028" y="1.67" class="h">python</text><text x="21.042" y="1.67" class="i">app</text><text x="24.048" y="1.67" class="q">.py</text></svg><svg x="2960"><use xlink:href="#a"/><use xlink:href="#b" x="24.996"/><text x="1.002" y="1.67" class="f">&gt;</text><text x="3.006" y="1.67" class="g">poetry</text><text x="10.02" y="1.67" class="h">run</text><text x="14.028" y="1.67" class="h">python</text><text x="21.042" y="1.67" class="i">app_</text></svg><svg x="3040"><use xlink:href="#a"/><use xlink:href="#b" x="24.996"/><text x="1.002" y="1.67" class="f">&gt;</text><text x="3.006" y="1.67" class="g">poetry</text><text x="10.02" y="1.67" class="h">run</text><text x="14.028" y="1.67" class="h">python</text><text x="21.042" y="1.67" class="i">app_</text><text x="25.05" y="1.67" class="q">config.py</text></svg><svg x="3120"><use xlink:href="#a"/><use xlink:href="#b" x="25.996"/><text x="1.002" y="1.67" class="f">&gt;</text><text x="3.006" y="1.67" class="g">poetry</text><text x="10.02" y="1.67" class="h">run</text><text x="14.028" y="1.67" class="h">python</text><text x="21.042" y="1.67" class="i">app_c</text><text x="26.052" y="1.67" class="q">onfig.py</text></svg><svg x="3200"><use xlink:href="#a"/><use xlink:href="#b" x="26.996"/><text x="1.002" y="1.67" class="f">&gt;</text><text x="3.006" y="1.67" class="g">poetry</text><text x="10.02" y="1.67" class="h">run</text><text x="14.028" y="1.67" class="h">python</text><text x="21.042" y="1.67" class="i">app_co</text><text x="27.054" y="1.67" class="q">nfig.py</text></svg><svg x="3280"><use xlink:href="#a"/><use xlink:href="#b" x="27.996"/><text x="1.002" y="1.67" class="f">&gt;</text><text x="3.006" y="1.67" class="g">poetry</text><text x="10.02" y="1.67" class="h">run</text><text x="14.028" y="1.67" class="h">python</text><text x="21.042" y="1.67" class="i">app_con</text><text x="28.056" y="1.67" class="q">fig.py</text></svg><svg x="3360"><use xlink:href="#a"/><use xlink:href="#b" x="28.996"/><text x="1.002" y="1.67" class="f">&gt;</text><text x="3.006" y="1.67" class="g">poetry</text><text x="10.02" y="1.67" class="h">run</text><text x="14.028" y="1.67" class="h">python</text><text x="21.042" y="1.67" class="i">app_conf</text><text x="29.058" y="1.67" class="q">ig.py</text></svg><svg x="3440"><use xlink:href="#a"/><use xlink:href="#b" x="29.996"/><text x="1.002" y="1.67" class="f">&gt;</text><text x="3.006" y="1.67" class="g">poetry</text><text x="10.02" y="1.67" class="h">run</text><text x="14.028" y="1.67" class="h">python</text><text x="21.042" y="1.67" class="i">app_confi</text><text x="30.06" y="1.67" class="q">g.py</text></svg><svg x="3520"><use xlink:href="#a"/><use xlink:href="#b" x="30.996"/><text x="1.002" y="1.67" class="f">&gt;</text><text x="3.006" y="1.67" class="g">poetry</text><text x="10.02" y="1.67" class="h">run</text><text x="14.028" y="1.67" class="h">python</text><text x="21.042" y="1.67" class="i">app_config</text><text x="31.062" y="1.67" class="q">.py</text></svg><svg x="3600"><use xlink:href="#a"/><use xlink:href="#b" x="31.996"/><text x="1.002" y="1.67" class="f">&gt;</text><text x="3.006" y="1.67" class="g">poetry</text><text x="10.02" y="1.67" class="h">run</text><text x="14.028" y="1.67" class="h">python</text><text x="21.042" y="1.67" class="i">app_config.</text><text x="32.064" y="1.67" class="q">py</text></svg><svg x="3680"><use xlink:href="#a"/><use xlink:href="#b" x="32.996"/><text x="1.002" y="1.67" class="f">&gt;</text><text x="3.006" y="1.67" class="g">poetry</text><text x="10.02" y="1.67" class="h">run</text><text x="14.028" y="1.67" class="h">python</text><text x="21.042" y="1.67" class="i">app_config.p</text><text x="33.066" y="1.67" class="q">y</text></svg><svg x="3760"><use xlink:href="#a"/><use xlink:href="#b" x="33.996"/><use xlink:href="#5"/></svg><svg x="3840"><use xlink:href="#a"/><use xlink:href="#b" x="34.996"/><use xlink:href="#5"/></svg><svg x="3920"><use xlink:href="#a"/><use xlink:href="#b" x="34.996"/><use xlink:href="#5"/></svg><svg x="4000"><use xlink:href="#a"/><use xlink:href="#b" x="35.996"/><text x="1.002" y="1.67" class="f">&gt;</text><text x="3.006" y="1.67" class="g">poetry</text><text x="10.02" y="1.67" class="h">run</text><text x="14.028" y="1.67" class="h">python</text><text x="21.042" y="1.67" class="i">app_config.py</text><text x="35.07" y="1.67" class="f">c</text></svg><svg x="4080"><use xlink:href="#a"/><use xlink:href="#b" x="35.996"/><text x="1.002" y="1.67" class="f">&gt;</text><text x="3.006" y="1.67" class="g">poetry</text><text x="10.02" y="1.67" class="h">run</text><text x="14.028" y="1.67" class="h">python</text><text x="21.042" y="1.67" class="i">app_config.py</text><text x="35.07" y="1.67" class="h">c</text></svg><svg x="4160"><use xlink:href="#a"/><use xlink:href="#b" x="36.996"/><text x="1.002" y="1.67" class="f">&gt;</text><text x="3.006" y="1.67" class="g">poetry</text><text x="10.02" y="1.67" class="h">run</text><text x="14.028" y="1.67" class="h">python</text><text x="21.042" y="1.67" class="i">app_config.py</text><text x="35.07" y="1.67" class="h">co</text></svg><svg x="4240"><use xlink:href="#a"/><use xlink:href="#b" x="37.996"/><text x="1.002" y="1.67" class="f">&gt;</text><text x="3.006" y="1.67" class="g">poetry</text><text x="10.02" y="1.67" class="h">run</text><text x="14.028" y="1.67" class="h">python</text><text x="21.042" y="1.67" class="i">app_config.py</text><text x="35.07" y="1.67" class="h">con</text></svg><svg x="4320"><use xlink:href="#a"/><use xlink:href="#b" x="38.996"/><text x="1.002" y="1.67" class="f">&gt;</text><text x="3.006" y="1.67" class="g">poetry</text><text x="10.02" y="1.67" class="h">run</text><text x="14.028" y="1.67" class="h">python</text><text x="21.042" y="1.67" class="i">app_config.py</text><text x="35.07" y="1.67" class="h">conf</text></svg><svg x="4400"><use xlink:href="#a"/><use xlink:href="#b" x="39.996"/><text x="1.002" y="1.67" class="f">&gt;</text><text x="3.006" y="1.67" class="g">poetry</text><text x="10.02" y="1.67" class="h">run</text><text x="14.028" y="1.67" class="h">python</text><text x="21.042" y="1.67" class="i">app_config.py</text><text x="35.07" y="1.67" class="h">confi</text></svg><svg x="4480"><use xlink:href="#a"/><use xlink:href="#b" x="40.996"/><use xlink:href="#6"/></svg><svg x="4560"><use xlink:href="#a"/><use xlink:href="#b" x="-.004" y="2.146"/><use xlink:href="#6"/></svg><svg x="4640"><use xlink:href="#a"/><use xlink:href="#b" x="-.004" y="2.146"/><use xlink:href="#6"/></svg><svg x="4720"><use xlink:href="#a"/><use xlink:href="#b" x="-.004" y="2.146"/><use xlink:href="#6"/></svg><svg x="4800"><use xlink:href="#a"/><use xlink:href="#b" x="-.004" y="6.488"/><use xlink:href="#6"/><use xlink:href="#7" y="2.171"/><use xlink:href="#8" y="4.342"/></svg><svg x="4880"><use xlink:href="#a"/><use xlink:href="#b" x="-.004" y="6.488"/><use xlink:href="#6"/><use xlink:href="#7" y="2.171"/><use xlink:href="#8" y="4.342"/></svg><svg x="4960"><use xlink:href="#a"/><use xlink:href="#b" x="2.996" y="6.488"/><use xlink:href="#6"/><use xlink:href="#7" y="2.171"/><use xlink:href="#8" y="4.342"/><use xlink:href="#1" y="6.513"/></svg><svg x="5040"><use xlink:href="#a"/><use xlink:href="#b" x="-.004" y="8.659"/><use xlink:href="#6"/><use xlink:href="#7" y="2.171"/><use xlink:href="#8" y="4.342"/><use xlink:href="#1" y="6.513"/></svg><svg x="5120"><use xlink:href="#a"/><use xlink:href="#b" x="-.004" y="8.659"/><use xlink:href="#6"/><use xlink:href="#7" y="2.171"/><use xlink:href="#8" y="4.342"/><use xlink:href="#1" y="6.513"/></svg></svg></g></g></svg></svg>